<?xml version="1.0" encoding="UTF-8" standalone="no"?>
<!-- Created with Inkscape (http://www.inkscape.org/) -->

<svg
   xmlns:dc="http://purl.org/dc/elements/1.1/"
   xmlns:cc="http://creativecommons.org/ns#"
   xmlns:rdf="http://www.w3.org/1999/02/22-rdf-syntax-ns#"
   xmlns:svg="http://www.w3.org/2000/svg"
   xmlns="http://www.w3.org/2000/svg"
   xmlns:sodipodi="http://sodipodi.sourceforge.net/DTD/sodipodi-0.dtd"
   xmlns:inkscape="http://www.inkscape.org/namespaces/inkscape"
   width="210mm"
   height="297mm"
   viewBox="0 0 210 297"
   version="1.1"
   id="svg8"
   inkscape:version="0.92.2 (5c3e80d, 2017-08-06)"
   sodipodi:docname="icon.svg">
  <defs
     id="defs2" />
  <sodipodi:namedview
     id="base"
     pagecolor="#ffffff"
     bordercolor="#666666"
     borderopacity="1.0"
     inkscape:pageopacity="0.0"
     inkscape:pageshadow="2"
     inkscape:zoom="1.979899"
     inkscape:cx="391.20609"
     inkscape:cy="682.93603"
     inkscape:document-units="mm"
     inkscape:current-layer="layer1"
     showgrid="false"
     inkscape:window-width="958"
     inkscape:window-height="1008"
     inkscape:window-x="1913"
     inkscape:window-y="0"
     inkscape:window-maximized="0" />
  <metadata
     id="metadata5">
    <rdf:RDF>
      <cc:Work
         rdf:about="">
        <dc:format>image/svg+xml</dc:format>
        <dc:type
           rdf:resource="http://purl.org/dc/dcmitype/StillImage" />
        <dc:title></dc:title>
      </cc:Work>
    </rdf:RDF>
  </metadata>
  <g
     inkscape:label="Calque 1"
     inkscape:groupmode="layer"
     id="layer1">
    <path
       style="fill:#000000;stroke-width:0.26458332"
       d="m 103.56548,144.35068 c -2.34198,-0.81079 -3.704166,-2.82507 -3.704166,-5.47738 0,-1.03365 -1.062641,-3.51051 -2.509303,-5.84882 -0.38263,-0.61847 -0.621583,-1.12448 -0.531008,-1.12448 0.813896,0 2.324939,1.8921 3.883437,4.86278 l 0.71084,1.35493 0.0168,-1.10284 c 0.0322,-2.11819 0.24006,-2.11248 1.79914,0.0494 0.84385,1.17013 1.59223,1.95949 1.78692,1.88478 0.36389,-0.13963 0.92863,0.30412 0.92863,0.72969 0,0.14699 -0.14111,0.12347 -0.3175,-0.0529 -0.45352,-0.45352 -0.86898,-0.39384 -0.48438,0.0696 0.254,0.30605 0.23895,0.55204 -0.0719,1.17509 l -0.39311,0.78801 1.47155,0.18386 c 1.59695,0.19952 6.46714,0.007 6.92147,-0.27421 0.18893,-0.11676 0.14689,-0.43105 -0.12904,-0.96463 -0.40483,-0.78287 -0.3912,-0.8197 1.25774,-3.39849 0.91686,-1.43388 1.72393,-2.55195 1.79349,-2.4846 0.0696,0.0673 0.19379,0.74021 0.27606,1.49527 l 0.14959,1.37283 0.44869,-1.05833 c 0.24678,-0.58209 0.56797,-1.23693 0.71376,-1.45521 0.1458,-0.21828 0.55201,-0.93266 0.90271,-1.5875 0.67304,-1.25676 1.90549,-2.57687 2.16421,-2.31816 0.0844,0.0844 -0.32202,1.02741 -0.90307,2.09566 -1.21471,2.23323 -1.89444,4.33452 -1.71158,5.29108 0.33636,1.75956 -1.14026,4.25401 -3.1144,5.26114 -1.08004,0.551 -2.18258,0.69614 -6.85765,0.90277 -2.54574,0.11251 -3.28039,0.0522 -4.49792,-0.36931 z m 0.79375,-3.32256 c 0.27066,-0.32612 0.24975,-0.39687 -0.11729,-0.39687 -0.24566,0 -0.68684,-0.12854 -0.98039,-0.28564 -0.49553,-0.26521 -0.50294,-0.31966 -0.10347,-0.76106 0.39743,-0.43916 0.39701,-0.48817 -0.005,-0.64263 -0.25097,-0.0963 -0.37164,-0.3343 -0.28456,-0.56123 0.147,-0.38306 -0.84309,-2.3825 -1.06827,-2.15733 -0.0619,0.0619 0.0258,0.90727 0.19489,1.87849 0.20267,1.16387 0.53086,2.0313 0.96269,2.5445 0.74546,0.88593 0.93961,0.9388 1.4019,0.38177 z m 10.70001,-0.85989 c 0.46749,-0.70994 0.70043,-1.51906 0.81885,-2.84427 l 0.16551,-1.85209 -0.68281,1.15149 c -0.74481,1.25605 -0.82041,1.47832 -0.41823,1.22976 0.42748,-0.26419 0.30294,0.30026 -0.14901,0.67534 -0.37433,0.31066 -0.37293,0.366 0.0147,0.58292 0.58521,0.3275 0.0335,0.9907 -0.8241,0.9907 -0.73936,0 -0.82314,0.38983 -0.16604,0.77256 0.25466,0.14833 0.4911,0.27331 0.52541,0.27773 0.0343,0.004 0.3564,-0.43844 0.71575,-0.98414 z m -6.73126,-0.18652 c 0,-0.43166 0.57884,-1.20255 0.90295,-1.20255 0.19535,0 0.51858,0.20836 0.7183,0.46303 0.33402,0.42591 0.32359,0.4319 -0.13022,0.0747 -0.44446,-0.34981 -0.54278,-0.32725 -0.99219,0.22775 -0.27436,0.33883 -0.49884,0.5355 -0.49884,0.43705 z m 2.12255,-0.0488 c -0.003,-0.16577 0.22456,-0.58249 0.50622,-0.92604 0.49369,-0.60218 0.52934,-0.60747 0.99218,-0.1473 0.46368,0.461 0.4631,0.47089 -0.0168,0.28943 -0.35445,-0.13403 -0.63717,-0.005 -0.9863,0.44872 -0.26919,0.35014 -0.49208,0.50097 -0.49532,0.33519 z m -3.04886,-0.36047 c -0.10205,-0.16512 -0.36894,-0.22985 -0.59308,-0.14384 -0.34319,0.1317 -0.353,0.0907 -0.0621,-0.25982 0.3097,-0.37316 0.3872,-0.37444 0.74928,-0.0124 0.22212,0.22212 0.33357,0.47414 0.24766,0.56005 -0.0859,0.0859 -0.23969,0.0211 -0.34174,-0.14403 z m -6.08515,-5.28841 c -0.89014,-0.58634 -2.638087,-3.31049 -3.088243,-4.81297 -0.22217,-0.74154 -0.498681,-1.05633 -1.117048,-1.27166 -0.451984,-0.15741 -1.29804,-0.59643 -1.880124,-0.97562 -1.043776,-0.67995 -1.05057,-0.68074 -0.493969,-0.0572 0.80433,0.90113 1.350404,2.07438 1.530019,3.28726 l 0.155373,1.04919 -0.41442,-1.10977 c -0.227932,-0.61038 -0.864069,-1.61646 -1.413638,-2.23575 l -0.999217,-1.12598 -0.190495,0.759 c -0.104773,0.41744 -0.361784,1.00354 -0.571137,1.30243 -0.351167,0.50136 -0.381127,0.43133 -0.38692,-0.90449 -0.004,-0.92315 -0.243297,-2.0233 -0.660234,-3.03544 -0.732461,-1.77808 -0.739069,-1.80211 -0.445695,-1.62079 0.11589,0.0716 -0.118102,-0.54643 -0.519982,-1.37345 -0.40188,-0.82702 -0.805163,-1.86086 -0.896184,-2.29742 -0.10014,-0.4803 0.15678,-0.13275 0.650597,0.8801 1.165416,2.39035 3.062149,4.68283 5.04546,6.09817 1.639368,1.1699 1.807072,1.22803 3.807133,1.31959 2.162644,0.099 4.416924,-0.3439 6.717374,-1.31976 0.61846,-0.26235 1.12448,-0.41515 1.12448,-0.33956 0,0.21987 -2.79402,1.39432 -4.09856,1.72281 l -1.19311,0.30042 v 2.63182 c 0,1.4475 0.12325,2.86212 0.27389,3.14359 0.34819,0.6506 0.0678,0.64624 -0.93535,-0.0146 z m -1.14041,-3.83928 c -0.0828,-0.70906 -0.230479,-0.92604 -0.630375,-0.92604 -0.287248,0 -0.47876,0.0893 -0.425584,0.19844 0.954519,1.95908 1.221179,2.14282 1.055959,0.7276 z m 15.32076,2.97656 c 0.25186,-0.85676 0.0624,-4.67782 -0.25505,-5.1449 -0.0918,-0.13509 -0.82181,-0.39715 -1.62217,-0.58234 -0.80037,-0.1852 -1.93146,-0.56753 -2.51354,-0.84963 -0.58209,-0.2821 -0.82021,-0.44047 -0.52917,-0.35192 4.20987,1.28077 7.44341,1.51499 9.26042,0.67075 2.27779,-1.05832 5.08278,-4.29357 6.40594,-7.38855 0.5094,-1.19154 0.60996,-1.31339 0.48797,-0.59133 -0.0845,0.50021 -0.44995,1.5567 -0.81211,2.34776 -0.42726,0.93326 -0.51931,1.32279 -0.26215,1.10937 0.27869,-0.2313 0.22424,0.0535 -0.18345,0.95953 -0.40119,0.89156 -0.5843,1.83096 -0.59445,3.04961 -0.0161,1.93778 -0.3817,2.04933 -0.96124,0.29331 l -0.31218,-0.9459 -0.51474,0.63634 c -0.2831,0.34999 -0.85763,1.35071 -1.27671,2.22384 -0.41909,0.87312 -0.76678,1.40891 -0.77264,1.19062 -0.0229,-0.85372 0.60033,-2.55699 1.25099,-3.41872 0.6984,-0.92493 0.53163,-0.90031 -0.86773,0.12812 -0.43657,0.32084 -1.06137,0.66464 -1.38845,0.76399 -0.35253,0.10708 -0.66124,0.46974 -0.7581,0.8906 -0.36175,1.57185 -1.98935,4.54609 -2.84484,5.1986 -1.13722,0.8674 -1.24103,0.84643 -0.9366,-0.18915 z m 2.43512,-3.50573 c 0.42252,-0.88603 0.42017,-0.92604 -0.0543,-0.92604 -0.36981,0 -0.52344,0.23552 -0.60405,0.92604 -0.0595,0.50933 -0.035,0.92604 0.0543,0.92604 0.0893,0 0.36117,-0.41671 0.60405,-0.92604 z m -19.827745,-4.60975 c -1.015193,-0.61903 -1.299085,-1.03888 -0.943139,-1.39483 0.183525,-0.18353 0.367885,-0.0869 0.575916,0.30179 0.16829,0.31446 0.685335,0.80304 1.148991,1.08575 0.463655,0.28272 0.664415,0.51402 0.446134,0.51402 -0.218281,0 -0.770837,-0.22803 -1.227902,-0.50673 z m 9.995955,-0.32443 c -0.29039,-0.46499 -0.28563,-0.61893 0.0289,-0.93345 0.57723,-0.57724 1.05877,0.10768 0.63388,0.9016 l -0.31504,0.58867 z m 10.36996,-0.52223 c 0.53368,-0.4399 0.97032,-0.96975 0.97032,-1.17743 0,-0.45679 0.42393,-0.49735 0.69048,-0.0661 0.21899,0.35433 -1.23321,1.67776 -2.08562,1.90067 -0.37785,0.0988 -0.24729,-0.10316 0.42482,-0.65717 z M 99.511104,124.1609 c -1.102664,-1.47755 -1.344428,-2.08455 -0.933878,-2.3447 0.593817,-0.37629 0.754921,-0.27033 0.754921,0.49653 0,0.40234 0.238356,1.17624 0.529681,1.71979 0.652212,1.21689 0.502502,1.27169 -0.350724,0.12838 z m 5.994056,0.12887 c -0.50292,-0.24173 -1.10606,-0.89077 -1.50722,-1.62193 -0.7336,-1.33707 -1.66847,-2.41194 -3.08273,-3.54438 -0.50688,-0.40588 -0.66154,-0.61424 -0.34369,-0.46302 0.31786,0.15121 0.82979,0.27493 1.13762,0.27493 1.45346,0 3.40677,2.1219 3.83466,4.16562 0.0988,0.47207 0.37776,0.96916 0.61984,1.10463 0.77184,0.43194 0.21355,0.50329 -0.65848,0.0842 z m 5.40251,-0.38504 c 0.32742,-0.35081 0.59792,-0.86829 0.60112,-1.14995 0.01,-0.8394 0.92915,-2.57558 1.79488,-3.38862 0.445,-0.4179 1.2651,-0.84322 1.82245,-0.94514 l 1.01335,-0.1853 -1.19376,1.22724 c -0.65658,0.67499 -1.55096,1.92858 -1.98752,2.78576 -0.615,1.20753 -1.0023,1.64132 -1.71979,1.92619 l -0.92604,0.36767 z m 6.0371,-0.0517 c 0.27314,-0.42398 0.55946,-1.29313 0.63627,-1.93144 0.12958,-1.07692 0.17517,-1.13446 0.63248,-0.79837 0.47948,0.35238 0.47845,0.39038 -0.038,1.40228 -0.29195,0.57205 -0.80005,1.27821 -1.1291,1.56925 l -0.59828,0.52917 z m -11.9381,-4.88703 c -0.57437,-0.41971 -1.63963,-0.95273 -2.36723,-1.1845 l -1.32292,-0.42139 1.26162,0.0942 c 0.84824,0.0633 1.61893,0.34308 2.35216,0.85377 0.59981,0.41775 1.34177,0.90663 1.64881,1.08639 0.55486,0.32484 0.55495,0.32685 0.0151,0.33072 -0.29875,0.002 -1.01313,-0.3395 -1.5875,-0.75921 z m 5.97714,-0.30812 c 1.57159,-1.38392 4.22334,-2.37258 4.22334,-1.5746 0,0.14552 -0.34362,0.26458 -0.7636,0.26458 -0.45034,0 -1.41379,0.43419 -2.34847,1.05834 -1.88538,1.25901 -2.38326,1.37176 -1.11127,0.25168 z m -17.077571,-5.23425 c -0.750987,-1.13482 -1.180975,-2.42548 -1.204235,-3.61464 -0.01394,-0.71281 -0.04832,-0.74499 -0.330729,-0.30956 -0.747966,1.15324 -0.962974,1.289 -0.48748,0.30781 0.282082,-0.58208 0.763671,-1.28515 1.070198,-1.56236 l 0.557321,-0.50403 v 1.21861 c 0,1.48765 0.463108,3.76736 0.965013,4.75038 0.539745,1.05715 0.209026,0.8911 -0.570088,-0.28621 z m 28.212731,-1.17086 c 0.30081,-0.87074 0.48245,-2.16779 0.48787,-3.48384 l 0.009,-2.09664 0.6866,0.64143 c 0.37763,0.35279 0.86359,0.99862 1.07992,1.43519 l 0.39332,0.79375 -0.67353,-0.79375 -0.67353,-0.79375 -0.01,1.43782 c -0.009,1.42428 -0.71159,3.36109 -1.43667,3.96285 -0.23542,0.19538 -0.19266,-0.14916 0.13689,-1.10306 z m -19.31121,-0.38508 c -0.0198,-0.32197 -0.28002,-1.23752 -0.57823,-2.03456 -0.94743,-2.53224 -3.183649,-3.84067 -4.431441,-2.59287 -0.451498,0.45149 -0.513935,0.45261 -1.22603,0.0219 -0.412667,-0.24961 -0.942732,-0.3906 -1.17792,-0.31331 -0.23519,0.0773 -0.07043,-0.16939 0.366133,-0.54818 0.436563,-0.3788 1.061641,-0.76245 1.389063,-0.85257 0.638076,-0.17561 0.77581,-0.86233 0.337296,-1.6817 -0.231085,-0.43179 -0.09991,-0.50339 1.256771,-0.68594 0.833133,-0.11211 1.871978,-0.17409 2.308538,-0.13774 0.97359,0.0811 3.18093,1.00181 3.59352,1.49895 0.4382,0.52799 0.7721,0.20102 0.7721,-0.75608 0,-0.60216 0.0798,-0.75124 0.28976,-0.54129 0.33436,0.33436 0.47047,2.84693 0.1705,3.14766 -0.11065,0.11094 -0.52737,-0.10849 -0.92604,-0.48763 -1.27682,-1.21429 -3.42793,-2.12994 -4.6262,-1.96922 -1.771739,0.23764 -1.975676,1.05967 -0.432368,1.74281 1.436488,0.63585 3.378768,4.55099 3.065358,6.17897 l -0.11478,0.59619 z m 10.59217,-1.47764 c 0.27561,-2.07063 1.42793,-4.38484 2.52984,-5.08073 0.46085,-0.29104 0.90999,-0.70462 0.99809,-0.91906 0.26932,-0.65558 -0.66826,-1.12336 -1.92115,-0.95852 -1.1976,0.15757 -1.92306,0.54045 -3.66041,1.93183 -0.5955,0.47691 -1.16105,0.78879 -1.25677,0.69306 -0.27813,-0.27813 -0.20086,-2.94847 0.0905,-3.12856 0.14552,-0.0899 0.26459,0.0719 0.26459,0.35962 0,1.2745 0.24226,1.33941 1.59685,0.42784 1.51916,-1.02232 2.96747,-1.37244 5.10238,-1.23346 1.31039,0.0853 1.51231,0.16544 1.35503,0.53771 -0.52481,1.24225 -0.41815,1.48242 0.93759,2.11117 1.42822,0.66237 1.65463,0.96712 0.76812,1.0339 -0.30732,0.0232 -0.75381,0.21753 -0.99218,0.43195 -0.3842,0.34559 -0.50664,0.33034 -1.07815,-0.13435 -0.79219,-0.64413 -1.69827,-0.47739 -2.72794,0.50201 -0.77131,0.73366 -1.7867,3.09781 -1.7867,4.16001 0,0.34975 -0.0986,0.69684 -0.21909,0.77132 -0.12049,0.0745 -0.12078,-0.60312 -5.3e-4,-1.50574 z m -5.85576,-4.15469 c -0.013,-0.50932 -0.30879,-1.75947 -0.65736,-2.77812 -0.62457,-1.82526 -0.62643,-1.85995 -0.12854,-2.39502 0.52829,-0.56774 1.01751,-2.598166 1.0732,-4.454114 0.029,-0.966808 0.0583,-0.911061 0.26233,0.499134 0.12633,0.873125 0.44572,2.365545 0.70978,3.31649 0.46061,1.65881 0.46099,1.76056 0.01,2.50695 -0.25881,0.42788 -0.54987,1.31671 -0.6468,1.97518 -0.0969,0.65847 -0.27125,1.43534 -0.38738,1.72638 -0.16845,0.42215 -0.21593,0.34188 -0.23475,-0.39688 z m -20.118273,-4.16759 c -0.563387,-0.28145 -1.139448,-0.87708 -1.470977,-1.52095 -0.299715,-0.58208 -0.895027,-1.236924 -1.322917,-1.455205 l -0.777981,-0.396875 1.010652,-0.08322 c 1.176793,-0.0969 1.614975,0.202254 2.319745,1.58372 0.34981,0.68568 0.913178,1.21474 1.766599,1.65902 l 1.253004,0.6523 -0.926041,0.0119 c -0.509323,0.007 -1.342761,-0.19627 -1.852084,-0.4507 z m 8.701284,-0.92832 c -0.37817,-0.51231 -0.507811,-0.54135 -1.136929,-0.25471 -1.247787,0.56853 -1.535795,0.36688 -0.630848,-0.44169 l 0.856438,-0.765224 -0.911231,-0.851217 -0.91123,-0.851217 -0.20456,0.78942 c -0.112508,0.434182 -0.375326,0.931144 -0.58404,1.104362 -0.547728,0.454576 -1.135252,-0.627054 -0.654958,-1.205774 0.265852,-0.320331 0.232038,-0.489509 -0.180077,-0.900954 -0.51869,-0.517845 -1.009747,-0.638791 -2.293328,-0.564836 -0.843078,0.04857 -0.93909,0.556196 -0.327137,1.729592 0.358279,0.686988 0.356909,0.728185 -0.01398,0.420374 -0.226153,-0.187691 -0.653337,-0.681323 -0.949298,-1.096962 l -0.53811,-0.755706 0.938838,-0.392272 c 1.884819,-0.787527 5.074565,-0.2912 6.463544,1.005734 0.761577,0.711109 1.241076,1.620981 1.459347,2.76918 0.191838,1.00916 0.176772,1.01948 -0.382441,0.2619 z m 29.663299,0.0983 c 0,-0.16172 0.16946,-0.29403 0.37657,-0.29403 0.60429,0 1.98405,-1.303557 2.54631,-2.405688 0.61747,-1.21033 1.36877,-1.672355 2.32728,-1.4312 l 0.70297,0.17686 -0.84452,0.355566 c -0.64812,0.272875 -0.91085,0.601906 -1.12974,1.414812 -0.19887,0.738523 -0.544,1.21829 -1.13986,1.58452 -1.04868,0.64455 -2.83901,1.02238 -2.83901,0.59916 z m -23.68021,-0.59336 c -0.44644,-0.27652 -1.28576,-0.49225 -1.91823,-0.49303 -0.880166,-10e-4 -1.124476,-0.0988 -1.124476,-0.449935 0,-0.246699 -0.327422,-0.792241 -0.727604,-1.212316 l -0.727605,-0.763772 1.356558,0.513087 c 1.436987,0.543508 1.869477,0.807087 3.262897,1.988566 1.0429,0.88428 0.98016,1.09978 -0.12154,0.4174 z m 10.71563,-0.20186 c 0,-0.565241 3.90345,-3.202979 4.73993,-3.202979 0.1447,0 -0.0292,0.292245 -0.38633,0.649432 -0.35719,0.357188 -0.64944,0.892969 -0.64944,1.190625 0,0.448814 -0.16936,0.541362 -0.99218,0.542182 -0.54571,5.56e-4 -1.37914,0.236919 -1.85209,0.52528 -0.47294,0.28836 -0.85989,0.42132 -0.85989,0.29546 z m 6.48587,-0.689437 c 0.25655,-1.609581 0.93868,-2.554693 2.3787,-3.295752 1.06883,-0.55004 1.68127,-0.672998 3.35212,-0.672998 2.41444,0 2.82515,0.252298 2.24306,1.377932 -0.22107,0.427501 -0.61124,0.947198 -0.86705,1.15488 -0.36954,0.300011 -0.42032,0.303231 -0.24713,0.01567 0.11989,-0.199065 0.30899,-0.765444 0.42022,-1.258619 0.1813,-0.803886 0.13662,-0.91315 -0.43178,-1.055809 -0.76836,-0.192845 -1.64237,0.0047 -2.3538,0.532092 -0.4554,0.337569 -0.48222,0.469117 -0.19239,0.943626 0.2597,0.425195 0.26655,0.682586 0.0299,1.124733 l -0.30685,0.573357 -0.49295,-0.608763 c -0.27112,-0.33482 -0.49294,-0.774166 -0.49294,-0.976326 0,-0.537357 -0.35898,-0.45054 -1.01222,0.244802 -0.79958,0.851115 -0.71949,1.424156 0.28461,2.036368 0.96894,0.590774 0.79478,0.652164 -0.68465,0.241364 -0.87405,-0.242701 -1.06969,-0.214873 -1.40547,0.19991 -0.35453,0.43795 -0.37471,0.38541 -0.2214,-0.576466 z M 94.83423,94.546228 c 0,-0.229866 -0.397659,-1.208046 -0.883687,-2.173733 -0.765332,-1.520637 -0.809628,-1.707314 -0.330729,-1.393807 0.304127,0.199093 0.811507,0.740487 1.127512,1.203097 0.321072,0.47003 0.648965,0.720709 0.743219,0.568203 0.09277,-0.150099 0.349943,-0.272907 0.571505,-0.272907 0.326908,0 0.291048,0.187018 -0.19025,0.992188 -0.797428,1.334031 -1.03757,1.583289 -1.03757,1.076959 z m 24.75375,-1.564459 c -0.73949,-1.117448 -0.71617,-1.619834 0.0527,-1.134851 0.35696,0.225161 0.51591,0.128303 0.84721,-0.516244 0.22429,-0.436374 0.70546,-0.98063 1.06927,-1.209458 0.61523,-0.386976 0.6369,-0.384905 0.31014,0.02964 -0.19323,0.245129 -0.62395,1.225906 -0.95716,2.179507 l -0.60585,1.733818 z"
       id="path21"
       inkscape:connector-curvature="0"
       sodipodi:nodetypes="cscscccccsccccccccccccccccccccccsccccccccccccccccscccccsccccccccccccccccscccccccccccccccccscccccsccsccccsscccccccccccccccccccccccccscscccccscccccccsccccccssccsccsccccccccccccccscccscsccccccccccsscccccsccsccccccsccccscccscccccccccscccccccccccccccsccccccccscccccsccccccccccscsccccccccccccsscccccscssccssccccccsscsccscssscsccsccsscccscccccsssscccsccccssscsccccsc" />
  </g>
</svg>
