<svg version="1.1" xmlns="http://www.w3.org/2000/svg" xmlns:xlink="http://www.w3.org/1999/xlink" width="48" height="48"><defs><linearGradient x1="10.43822" y1="8.44321" x2="37.91533" y2="39.91039" gradientUnits="userSpaceOnUse" id="color-1"><stop offset="0.79" stop-color="#000000" stop-opacity="0.06"></stop><stop offset="1" stop-color="#000000" stop-opacity="0"></stop></linearGradient><filter id="dropshadow-base"><feColorMatrix type="matrix" values="0 0 0 0 0  0 0 0 0 0  0 0 0 0 0  0 0 0 .8 0"></feColorMatrix> <feOffset dx="0" dy="1"></feOffset> <feGaussianBlur stdDeviation="1"></feGaussianBlur> <feComposite in="SourceGraphic"></feComposite></filter><filter id="dropshadow-banner" x="-10%" y="-10%" width="120%" height="130%"><feColorMatrix type="matrix" values="0 0 0 0 0  0 0 0 0 0  0 0 0 0 0  0 0 0 .4 0"></feColorMatrix> <feOffset dx="0" dy="1"></feOffset> <feGaussianBlur stdDeviation="0.5"></feGaussianBlur> <feComposite in="SourceGraphic"></feComposite></filter></defs><g fill="none" fill-rule="nonzero" stroke="none" stroke-width="none" stroke-linecap="butt" stroke-linejoin="miter" stroke-miterlimit="10" stroke-dasharray="" stroke-dashoffset="0" font-family="none" font-weight="none" font-size="none" text-anchor="none" style="mix-blend-mode: normal"><path d="M7,43c-1.10457,0 -2,-0.89543 -2,-2v-34c0,-1.10457 0.89543,-2 2,-2h34c1.10457,0 2,0.89543 2,2v34c0,1.10457 -0.89543,2 -2,2z" id="base 1 13 1 1" fill="#d1a22a" stroke-width="1"></path><path d="M19.50439,36.21718c0,-0.58543 -0.60186,-1.98827 -1.42121,-3.31263c-0.21549,-0.34833 -0.35053,-0.63367 -0.30159,-0.63685l-0.22485,-0.22485l-0.23472,-0.62854c-0.12909,-0.3457 -0.48939,-0.91553 -0.80065,-1.26628l-0.22116,-0.24922l-0.09911,0.39492c-0.05933,0.23643 -0.2049,0.56838 -0.32347,0.73767c-0.08659,0.12363 -0.1387,0.18591 -0.17021,0.1544c0,0 0,0 0,0l-0.35355,-0.35355c-0.04087,-0.04087 -0.04708,-0.2395 -0.04894,-0.66668c-0.00227,-0.52285 -0.1378,-1.14594 -0.37394,-1.7192c-0.41485,-1.00707 -0.41859,-1.02068 -0.25242,-0.91797c0.06563,0.04056 -0.06689,-0.30949 -0.29451,-0.77789c-0.22761,-0.4684 -0.45603,-1.05394 -0.50757,-1.3012c-0.02333,-0.1119 -0.01244,-0.14446 0.02793,-0.10409c0,0 0,0 0,0l0.35355,0.35355c0.05777,0.05777 0.17592,0.26488 0.34055,0.60256c0.42465,0.87099 1.02073,1.71903 1.69102,2.42661c0.26446,0.25015 0.53728,0.4769 0.81305,0.6737c0.92851,0.66261 1.02348,0.69553 2.15628,0.74738c1.22488,0.05607 2.50164,-0.19477 3.80457,-0.74749c0.33191,-0.14079 0.60666,-0.22588 0.63455,-0.19799c0,0 0,0 0,0l0.35355,0.35355c0.00154,0.00154 0.00233,0.00343 0.00233,0.00568c0,0.12453 -1.58247,0.78971 -2.32134,0.97575l-0.67576,0.17014v1.4906c0,0.81983 0.0698,1.62103 0.15513,1.78046c0.19721,0.36848 0.03839,0.36602 -0.52976,-0.00828l-0.00002,0.00003c-0.0636,-0.04189 -0.13493,-0.10306 -0.21155,-0.17967l-0.35355,-0.35355c-0.53069,-0.53069 -1.31477,-1.80266 -1.53757,-2.54628c-0.03499,-0.11677 -0.07235,-0.21485 -0.11559,-0.29824c-0.04939,-0.02508 -0.10362,-0.04759 -0.16352,-0.06844c-0.25599,-0.08916 -0.73518,-0.3378 -1.06486,-0.55256c-0.59117,-0.38511 -0.59502,-0.38556 -0.27977,-0.03239c0.45555,0.51037 0.76483,1.17488 0.86656,1.86182l0.07165,0.48379c0.14166,0.04365 0.31068,0.16462 0.49957,0.35351l0.35355,0.35355c0.45037,0.45037 1.0137,1.28689 1.58843,2.38239l0.0538,0.10255l0.00478,-0.31332c0.01263,-0.83096 0.07299,-1.08481 0.40234,-0.75546l0.35355,0.35355c0.14614,0.14614 0.34525,0.40712 0.61665,0.78345c0.18227,0.25275 0.35668,0.47413 0.50883,0.64897c0.06883,0.05285 0.12036,0.07623 0.14969,0.06497c0.12053,-0.04625 0.27997,0.0205 0.39158,0.13212l0.35355,0.35355c0.07924,0.07924 0.13438,0.18109 0.13438,0.28116c0,0.08324 -0.07992,0.06993 -0.17982,-0.02996c-0.25686,-0.25686 -0.49217,-0.22307 -0.27434,0.03942c0.14385,0.17333 0.13533,0.31266 -0.04073,0.66555l-0.07737,0.15508l0.33462,0.04181c0.90447,0.113 3.66284,0.00397 3.92015,-0.1553c0.107,-0.06613 0.0832,-0.24413 -0.07309,-0.54634c-0.08883,-0.17178 -0.14209,-0.28014 -0.1197,-0.43336c-0.02776,-0.00983 -0.06102,-0.02229 -0.09982,-0.03696c-0.20074,-0.07592 -0.36087,-0.00283 -0.55861,0.25415c-0.12831,0.16691 -0.23806,0.25386 -0.27069,0.22122l-0.35355,-0.35355c-0.00492,-0.00492 -0.00809,-0.01256 -0.0093,-0.02304c-0.00154,-0.00121 -0.00309,-0.00243 -0.00465,-0.00366c-0.25172,-0.19813 -0.30742,-0.18534 -0.56196,0.129c-0.14021,0.17315 -0.2574,0.28075 -0.27898,0.25918l-0.35355,-0.35355c-0.00234,-0.00234 -0.00355,-0.00619 -0.00355,-0.01164l0,-0.00002c0,-0.24447 0.32784,-0.68109 0.51141,-0.68109c0.0919,0 0.23378,0.08143 0.34403,0.19167l0.35355,0.35355c0.0049,0.0049 0.00974,0.00986 0.01451,0.01487c0.04283,-0.11513 0.14544,-0.28485 0.26538,-0.43113c0.27962,-0.34107 0.29981,-0.34405 0.56194,-0.08343c0.01619,0.0161 0.03139,0.03123 0.04558,0.04542l0.35355,0.35355c0.02469,0.02469 0.04636,0.04655 0.06497,0.06575c0.07204,-0.24228 0.30618,-0.61103 0.8118,-1.40176c0.45037,-0.70433 0.85397,-1.27413 0.97887,-1.38808l-0.30921,-0.30921c-0.04266,-0.04266 -0.01148,-0.18926 0.06392,-0.44578c0.12297,-0.41834 0.06018,-2.08449 -0.07468,-2.70554c-0.16954,-0.06241 -0.39676,-0.12956 -0.63498,-0.18468c-0.45331,-0.1049 -1.09394,-0.32143 -1.42362,-0.48122c-0.20635,-0.1 -0.33638,-0.17255 -0.36437,-0.20054c0,0 0,0 0,0l-0.35355,-0.35355c-0.01673,-0.01673 0.00299,-0.01753 0.06465,0.00123c2.38437,0.7254 4.21578,0.85805 5.24489,0.3799c1.29009,-0.5994 2.87877,-2.43177 3.62817,-4.1847c0.18195,-0.42559 0.2718,-0.61024 0.29603,-0.58601l0.35355,0.35355c0.01419,0.01419 0.00587,0.10003 -0.01965,0.25109c-0.04785,0.2833 -0.25484,0.88168 -0.45997,1.32972c-0.08949,0.19548 -0.15302,0.34884 -0.19018,0.45838l0.13169,0.13169c0.03245,0.03245 -0.03084,0.21937 -0.19389,0.58171c-0.22722,0.50496 -0.33094,1.03702 -0.33668,1.72722c-0.00581,0.69938 -0.092,0.97874 -0.23871,0.83203c0,0 0,0 0,0c0,0 0,0 0,0l-0.35355,-0.35355c-0.08151,-0.08151 -0.1817,-0.29455 -0.29717,-0.64016l-0.12335,0.15249c-0.16034,0.19822 -0.48574,0.765 -0.72309,1.25952c-0.21362,0.44504 -0.39447,0.73534 -0.43095,0.69886l-0.35355,-0.35355c-0.00406,-0.00406 -0.00633,-0.01215 -0.00666,-0.02452c-0.00902,-0.33611 0.15879,-0.90471 0.38573,-1.38411c-0.21676,0.13818 -0.45899,0.26337 -0.60148,0.30664c-0.19967,0.06064 -0.37451,0.26605 -0.42937,0.50441c-0.20488,0.89025 -1.12672,2.5748 -1.61125,2.94437c-0.27171,0.20724 -0.43926,0.32494 -0.52924,0.34774l0.28123,0.28123c0.0343,0.0343 0.09177,0.32617 0.13676,0.68215l0.00464,-0.01094c0.13978,-0.32968 0.32168,-0.70057 0.40426,-0.8242c0.08258,-0.12363 0.31264,-0.52823 0.51127,-0.89912c0.38119,-0.7118 1.07922,-1.45948 1.22577,-1.31295c0,0 0,0 0,0l0.35355,0.35355c0.04781,0.04781 -0.18239,0.5819 -0.51148,1.18694c-0.68798,1.26484 -1.07297,2.45497 -0.96941,2.99675c0.19051,0.99657 -0.64582,2.40937 -1.76392,2.97979c-0.61171,0.31207 -1.23616,0.39427 -3.88401,0.5113c-1.44185,0.06372 -1.85793,0.02956 -2.54752,-0.20916l-0.00009,-0.00009c-0.47216,-0.16347 -0.87401,-0.4133 -1.19577,-0.73506l-0.35355,-0.35355c-0.58214,-0.58214 -0.90214,-1.39972 -0.90214,-2.36717zM28.89048,33.23642c0.23476,-0.17906 0.57219,-0.66682 0.88098,-1.22337c-0.00814,0.00572 -0.01514,0.00871 -0.02084,0.00871c-0.00484,0 -0.00934,-0.00216 -0.01349,-0.00631l-0.35355,-0.35355c-0.0393,-0.0393 -0.04774,-0.25728 -0.01726,-0.51817c0.04566,-0.39108 0.13267,-0.52448 0.34212,-0.52448c0.09801,0 0.16045,0.00301 0.18862,0.03119l0.35355,0.35355c0.00279,0.00279 0.00524,0.00582 0.00736,0.00913c0.1102,-0.26552 0.19625,-0.51464 0.24375,-0.72105c0.01265,-0.05497 0.03168,-0.10818 0.05593,-0.15828c-0.70153,0.14238 -1.62299,0.10859 -2.72544,-0.09854c0.19034,0.06396 0.33106,0.12626 0.37465,0.16985l0.35355,0.35355c0,0 0,0 0,0c0.00355,0.00355 0.00645,0.00697 0.00868,0.01026c0.16649,0.24495 0.27081,2.11861 0.17211,2.77999c0.04582,-0.03396 0.0955,-0.07146 0.14927,-0.11247zM20.3286,33.61789c0.56815,0.3743 0.72697,0.37675 0.52976,0.00828c-0.08533,-0.15943 -0.15513,-0.96063 -0.15513,-1.78046v-1.37292c-0.36763,0.03625 -0.73145,0.04622 -1.0908,0.02977c-1.1328,-0.05185 -1.22777,-0.08477 -2.15628,-0.74738c-0.33812,-0.24129 -0.67179,-0.52759 -0.99107,-0.84686l-0.35355,-0.35355c-0.70659,-0.70659 -1.34264,-1.57468 -1.8002,-2.47381c0.09843,0.28865 0.26257,0.68618 0.42629,1.0231c0.22761,0.4684 0.36014,0.81844 0.29451,0.77789c-0.16616,-0.10271 -0.16243,-0.08909 0.25242,0.91797c0.22493,0.54604 0.35857,1.1373 0.37272,1.64408c0.07897,-0.16192 0.1523,-0.35245 0.19029,-0.50382l0.10789,-0.42988l0.35355,0.35355l0.56594,0.63773c0.19298,0.21746 0.40481,0.51913 0.5687,0.7994c-0.1218,-0.63398 -0.41862,-1.24048 -0.84145,-1.71419c-0.31524,-0.35317 -0.3114,-0.35272 0.27977,0.03239c0.32968,0.21476 0.80887,0.46341 1.06486,0.55256c0.15676,0.05458 0.27472,0.12046 0.3685,0.21424l0.35355,0.35355c-0.05795,-0.05795 -0.12513,-0.10524 -0.20499,-0.1458c-0.04268,-0.08229 -0.09108,-0.15027 -0.14856,-0.20776l0.35355,0.35355c0.11574,0.11574 0.19464,0.27399 0.26416,0.50599c0.19751,0.65924 0.83616,1.73372 1.34831,2.33884c0.01618,0.01227 0.03194,0.02347 0.04725,0.03356zM24.14991,39.52867c2.64786,-0.11703 3.27231,-0.19924 3.88401,-0.5113c1.1181,-0.57042 1.95443,-1.98323 1.76392,-2.97979c-0.10356,-0.54178 0.28142,-1.73191 0.96941,-2.99675c0.05071,-0.09322 0.09906,-0.18476 0.14442,-0.2731c-0.18244,0.22501 -0.36517,0.49126 -0.50515,0.75266c-0.19863,0.37089 -0.4287,0.77549 -0.51127,0.89912c-0.08258,0.12363 -0.26448,0.49452 -0.40426,0.8242l-0.25412,0.59942l-0.29447,-0.29447l-0.01292,0.14455c-0.06707,0.75057 -0.199,1.20884 -0.46378,1.61094l0,0c-0.20352,0.30907 -0.38593,0.55964 -0.40536,0.55737c-0.01943,-0.0025 -0.15336,-0.07329 -0.29759,-0.15729c-0.07285,-0.04243 -0.12963,-0.08502 -0.17069,-0.12608l-0.35355,-0.35355c-0.05649,-0.05649 -0.08322,-0.11008 -0.08115,-0.15637c-0.04248,0.18063 0.01223,0.29297 0.11026,0.48254c0.15628,0.30221 0.18009,0.48021 0.07309,0.54634c-0.25731,0.15927 -3.01568,0.26831 -3.92015,0.1553l-0.83345,-0.10414l-0.26427,-0.26427c-0.15961,0.16159 -0.27259,0.15536 -0.48693,-0.05897l-0.35355,-0.35355c-0.06428,-0.06428 -0.13767,-0.14727 -0.22417,-0.25007c-0.22537,-0.26782 -0.40088,-0.70599 -0.51688,-1.28889l-0.00321,0.2103l-0.35355,-0.35355l-0.40261,-0.7674c-0.49929,-0.9517 -0.98998,-1.70796 -1.40548,-2.18537c-0.16979,-0.14068 -0.31887,-0.21525 -0.44047,-0.21525c-0.05131,0 0.08404,0.28659 0.30074,0.63688c0.81934,1.32436 1.42121,2.7272 1.42121,3.31263c0,0.8694 0.25841,1.61775 0.73326,2.18299c0.28656,0.24097 0.62539,0.43217 1.01114,0.56571l0.00009,0.00009c0.68956,0.2387 1.10565,0.27286 2.54747,0.20914zM28.35567,35.78827l0.14271,0.14271c0.02906,-0.15691 0.05231,-0.3291 0.07096,-0.52082c-0.0931,0.15857 -0.16379,0.28304 -0.21367,0.37811zM28.31521,36.3754c-0.08144,0.06758 -0.13147,0.11383 -0.14978,0.15213l0.11699,0.11699c0.05299,-0.11497 0.09815,-0.23757 0.13667,-0.37193c-0.03,0.03541 -0.06477,0.07036 -0.10388,0.10282zM27.85679,37.26665c-0.21382,0 -0.33084,0.05757 -0.34461,0.14277c0.10019,0.05593 0.17995,0.09665 0.1946,0.09854c0.01208,0.00141 0.08714,-0.09489 0.1911,-0.24221c-0.01355,0.0006 -0.02725,0.0009 -0.04109,0.0009zM27.83155,36.26001c-0.06255,-0.06255 -0.0185,-0.11483 0.13011,-0.23816c0.05662,-0.04699 0.10416,-0.09922 0.14126,-0.15046l-0.17072,-0.17072c-0.47015,0.73555 -0.69191,1.08873 -0.76288,1.32325c0.03535,-0.06733 0.14807,-0.11082 0.33392,-0.11082c0.35271,0 0.61406,-0.19806 0.60385,-0.37755zM21.78376,37.4046c-0.08979,-0.04806 -0.15128,-0.08389 -0.18599,-0.1186l-0.31564,-0.31564c0.09315,0.2518 0.20358,0.45481 0.3296,0.60457c0.00587,0.00698 0.01169,0.01387 0.01744,0.02067c0.13948,0.08964 0.23726,0.04953 0.37196,-0.09891c-0.07745,-0.02618 -0.15357,-0.05794 -0.21737,-0.09209zM21.3716,36.62c0.0706,-0.07802 0.11904,-0.1343 0.14524,-0.1775l-0.25389,-0.25389c-0.0665,-0.0665 -0.09004,-0.16003 -0.05535,-0.25045c0.04526,-0.11794 -0.0998,-0.50643 -0.26213,-0.81598c-0.0067,0.14345 0.04111,0.55272 0.121,1.0116c0.04324,0.24832 0.09657,0.47281 0.15933,0.67173c0.02335,-0.0465 0.07247,-0.1045 0.14579,-0.18552zM21.87313,36.68639c0,0 0,0 0,0c0.05274,0.05274 0.0032,0.12011 -0.14797,0.28716c-0.05687,0.06283 -0.09918,0.11182 -0.1262,0.15234c0.13876,0.05156 0.28953,0.08693 0.38651,0.08693c0.08597,0 0.13841,0.00685 0.15951,0.02795l0.24344,0.24344l0.06776,-0.13583c0.17606,-0.35289 0.18458,-0.49222 0.04073,-0.66555c-0.1526,-0.18389 -0.08281,-0.25554 0.06099,-0.19364c-0.02713,-0.02432 -0.0561,-0.05189 -0.08672,-0.08251l-0.35355,-0.35355c-0.18794,-0.18794 -0.43784,-0.49065 -0.70458,-0.86053c-0.16117,-0.22349 -0.29685,-0.4063 -0.41108,-0.54853c-0.11251,-0.05913 -0.17551,0.00667 -0.211,0.1968l0.26575,0.26575c0.20302,0.20302 0.57317,1.00599 0.50444,1.18509c-0.00861,0.02243 -0.01363,0.04505 -0.0153,0.0674zM22.95108,36.67338c0,-0.02114 -0.00246,-0.04237 -0.00709,-0.06344c-0.05768,-0.01521 -0.1149,-0.01563 -0.16531,0.00371c-0.01042,0.004 -0.02363,0.00363 -0.03943,-0.00088c0.01061,0.00971 0.0213,0.01993 0.03201,0.03064c0,0 0,0 0,0c0.09991,0.09989 0.17982,0.11321 0.17982,0.02996zM25.32791,36.57085c-0.03941,-0.02198 -0.07782,-0.03813 -0.11241,-0.04663c0.12881,0.09985 0.16172,0.11801 0.11241,0.04663zM26.54298,36.41663c-0.05742,-0.04081 -0.102,-0.04998 -0.15254,-0.02472c0.11905,0.04433 0.16953,0.05881 0.15254,0.02472zM23.79272,36.88523c-0.08718,0.03345 -0.13637,0.04723 -0.14926,0.03435l-0.35355,-0.35355c-0.01585,-0.01585 0.02322,-0.07201 0.11409,-0.1815c0.1754,-0.21135 0.2193,-0.21207 0.42437,-0.00702l0.35355,0.35355c0.12581,0.12581 0.18892,0.26854 0.14028,0.3172c-0.03803,0.03803 -0.09957,0.0239 -0.15223,-0.02877l-0.1267,-0.1267c-0.07123,-0.03461 -0.16623,-0.03992 -0.25054,-0.00757zM23.96864,36.69471c0.02235,-0.02235 0.02111,-0.06456 0.00104,-0.11586c-0.04551,-0.00428 -0.08747,0.02224 -0.14255,0.07983l0.04883,0.04883c0.03484,0.01446 0.0685,0.01136 0.09267,-0.01281zM19.43817,31.38491c0.10071,0.20671 0.18791,0.37852 0.26252,0.51608c0.01519,-0.0804 0.00814,-0.23363 -0.01801,-0.45753v-0.00002c-0.00744,-0.06367 -0.0158,-0.12033 -0.0255,-0.17061c-0.15032,0.00435 -0.24775,0.05309 -0.21901,0.11208zM20.03624,31.79701c0.05107,0.43739 0.0293,0.60511 -0.08887,0.48695c0,0 0,0 0,0l-0.35355,-0.35355c-0.09838,-0.09838 -0.26358,-0.39494 -0.5092,-0.89905c-0.03012,-0.06182 0.07834,-0.1124 0.24104,-0.1124c0.09295,0 0.16184,0.0207 0.21401,0.07286l0.35355,0.35355c0.07494,0.07494 0.11537,0.21484 0.14302,0.45162zM32.95263,28.92439l0.35355,0.35355l0.17682,0.53573c0.0347,0.10515 0.06805,0.19847 0.09995,0.28c0.05579,-0.11815 0.08748,-0.38513 0.09092,-0.79968c0.00574,-0.69021 0.10946,-1.22227 0.33668,-1.72722c0.07406,-0.16458 0.12753,-0.29297 0.16081,-0.38713l-0.09012,-0.09012c-0.45679,0.70692 -1.00761,1.37007 -1.57178,1.8964l0.21748,0.21748zM17.97505,27.74287c0.0692,-0.0692 0.13861,-0.06808 0.21203,0.00535l0.35355,0.35355c0.03687,0.03687 0.07476,0.09198 0.11414,0.16557c0.01539,0.02875 0.03593,0.06008 0.06065,0.09307c0.07752,0.06265 0.15838,0.12065 0.23655,0.16832c0.11517,0.07023 0.2017,0.13485 0.25213,0.18528l0.35355,0.35355c0.06456,0.06456 0.06995,0.10585 0.00054,0.10585c-0.12363,0 -0.43659,-0.12915 -0.69545,-0.28701l0.00002,0.00002c-0.21085,-0.12857 -0.366,-0.24197 -0.46801,-0.34398l-0.35355,-0.35355c-0.17616,-0.17616 -0.19383,-0.31835 -0.06616,-0.44603zM18.5092,28.53286c0.25886,0.15785 0.57182,0.28701 0.69545,0.28701c0.00177,0 0.00348,-0.00003 0.00515,-0.00008c-0.1198,-0.08317 -0.24018,-0.18466 -0.34045,-0.28494l-0.35355,-0.35355c-0.04418,-0.04418 -0.08445,-0.08812 -0.11906,-0.13015c-0.02283,0.00751 -0.0455,0.02263 -0.06814,0.04528c-0.08527,0.08527 -0.10571,0.17703 -0.05739,0.28105c0.06948,0.04927 0.14876,0.10098 0.23801,0.1554zM24.55406,27.75423l0.35355,0.35355c0.1015,0.1015 0.12421,0.32986 -0.00797,0.57686l-0.17844,0.33341l-0.35355,-0.35355l-0.19695,-0.31538c-0.16447,-0.26336 -0.16177,-0.35054 0.01637,-0.52868c0.14735,-0.14736 0.2837,-0.14949 0.36699,-0.0662zM24.54609,28.33109c0.04253,-0.07948 0.06903,-0.15703 0.08202,-0.22904c-0.02848,0.0184 -0.05776,0.04222 -0.08749,0.07194c-0.13524,0.13524 -0.16936,0.21806 -0.10598,0.36534zM30.91641,27.2616l0.35355,0.35355c0.02389,0.02389 0.04694,0.05301 0.06822,0.08743c0.12403,0.20068 -0.69847,0.95024 -1.18124,1.0765c-0.06209,0.01624 -0.09994,0.01813 -0.11309,0.00498l-0.35355,-0.35355c-0.03218,-0.03218 0.08348,-0.15445 0.35369,-0.37719l0.00002,0.00002c0.30226,-0.24914 0.54955,-0.54924 0.54955,-0.66687c0,-0.22225 0.1772,-0.27053 0.32285,-0.12487zM19.13359,26.4678l0.35355,0.35355c0.05221,0.05221 0.07108,0.17231 0.07108,0.36983c0,0.22788 0.135,0.66619 0.3,0.97404c0.25637,0.47833 0.29398,0.63964 0.13143,0.4771l-0.35355,-0.35355c-0.07166,-0.07166 -0.18222,-0.20626 -0.33008,-0.40438l0.00002,0.00002c-0.62453,-0.83685 -0.76146,-1.18064 -0.52893,-1.32799c0.18337,-0.1162 0.29389,-0.15121 0.35648,-0.08861zM19.73349,28.33576c0.00658,-0.04908 -0.06816,-0.22433 -0.22882,-0.52409c-0.15862,-0.29597 -0.28953,-0.71251 -0.2994,-0.94672c-0.02341,0.0133 -0.04826,0.02832 -0.07461,0.04501c-0.23253,0.14735 -0.0956,0.49114 0.52893,1.32799l-0.00002,-0.00002c0.02577,0.03454 0.05042,0.06714 0.07391,0.09782zM21.84728,27.03877c-0.24071,-0.43873 -0.51968,-0.82761 -0.86755,-1.20187c-0.16116,-0.15045 -0.33543,-0.30033 -0.52489,-0.45203c-0.09826,-0.07868 -0.17315,-0.14425 -0.22194,-0.19304l-0.35355,-0.35355c-0.09376,-0.09376 -0.09114,-0.12554 0.02727,-0.0692c0.18002,0.08564 0.46997,0.15571 0.64432,0.15571c0.37818,0 0.81612,0.25364 1.20258,0.64011l0.35355,0.35355c0.45477,0.45477 0.83827,1.09345 0.96929,1.7192c0.02568,0.1227 0.07285,0.24838 0.12962,0.35588c0.01789,0.01348 0.03239,0.02589 0.04372,0.03722l0.35355,0.35355c0.12872,0.12872 -0.15296,0.11689 -0.54877,-0.07334l-0.00002,-0.00002c-0.12313,-0.05918 -0.25685,-0.16146 -0.38736,-0.29198l-0.35355,-0.35355c-0.17142,-0.17142 -0.33729,-0.39154 -0.46628,-0.62665zM23.25826,28.10943l-0.25631,-0.25631c-0.11649,-0.11649 -0.2328,-0.34761 -0.27914,-0.56903c-0.11398,-0.54437 -0.41905,-1.09854 -0.79588,-1.53289c-0.3386,-0.29074 -0.70197,-0.47287 -1.02243,-0.47287c-0.17434,0 -0.46429,-0.07007 -0.64432,-0.15571c-0.03944,-0.01876 -0.06603,-0.02775 -0.0805,-0.02794c0.23164,0.1891 0.43999,0.37587 0.62911,0.565l0.35355,0.35355c0.42929,0.42929 0.75957,0.87072 1.03848,1.37907c0.08421,0.15349 0.18414,0.30059 0.29106,0.43192c0.07134,0.05563 0.14177,0.10083 0.20903,0.13316l0.00002,0.00002c0.27089,0.13019 0.48832,0.17682 0.55732,0.15202zM27.11781,25.16878c0.25204,-0.2367 0.71653,-0.47758 1.03219,-0.53531l0.57394,-0.10495l0.35355,0.35355l-0.67611,0.69508c-0.37187,0.38229 -0.87843,1.0923 -1.12569,1.57778c-0.34832,0.68392 -0.56768,0.92961 -0.97404,1.09095l-0.52448,0.20824l-0.35355,-0.35355l0.33716,-0.36126c0.18544,-0.19869 0.33866,-0.49178 0.34046,-0.6513c0.00566,-0.47542 0.52625,-1.45874 1.01657,-1.91924zM26.92214,26.80139c0.24726,-0.48548 0.75382,-1.19549 1.12569,-1.57778l0.13325,-0.13699c-0.25845,0.10571 -0.53508,0.27172 -0.70972,0.43572c-0.49032,0.4605 -1.01091,1.44382 -1.01657,1.91924c-0.00042,0.03709 -0.00903,0.08141 -0.02432,0.13008c0.159,-0.16893 0.30726,-0.40818 0.49167,-0.77026zM29.89865,26.16395c0.05671,0.04168 0.10155,0.07559 0.13435,0.10839c0,0 0,0 0,0l0.35355,0.35355c0.12424,0.12424 0.07555,0.23241 -0.15586,0.68583c-0.16535,0.324 -0.45312,0.72395 -0.63949,0.88879l-0.33886,0.29972l-0.35355,-0.35355l0.28127,-0.43663c0.1547,-0.24013 0.31686,-0.7324 0.36037,-1.09392c0.0734,-0.60993 0.09921,-0.64253 0.35823,-0.45217zM30.09936,26.42283c-0.1164,-0.04285 -0.14736,0.07559 -0.19826,0.48832c0.12947,-0.25446 0.19487,-0.39216 0.19826,-0.48832zM20.68212,24.38614l-0.35355,-0.35355l0.71455,0.05336c0.48042,0.03586 0.91692,0.19432 1.3322,0.48355c0.33971,0.2366 0.75995,0.5135 0.93384,0.6153c0.12344,0.07226 0.1984,0.11632 0.22539,0.14331c0,0 0,0 0,0l0.35355,0.35355c0.04173,0.04173 -0.03118,0.04268 -0.21684,0.04401c-0.16921,0.00114 -0.57381,-0.19228 -0.89912,-0.43l-0.00002,0.00002c-0.32531,-0.23771 -0.92865,-0.5396 -1.34075,-0.67087zM22.41861,24.94212c0.32531,0.23772 0.72991,0.43114 0.89912,0.43c0.02878,-0.00021 0.05485,-0.0004 0.0782,-0.00075c-0.19793,-0.1281 -0.44907,-0.2965 -0.66705,-0.44832c-0.37211,-0.25916 -0.76125,-0.41333 -1.18377,-0.46838c0.3223,0.14536 0.65856,0.33042 0.87348,0.48746zM28.54945,24.22936c0,0.08242 -0.19462,0.14986 -0.43248,0.14986c-0.25507,0 -0.80074,0.24592 -1.33012,0.59942c-0.62837,0.41961 -0.98462,0.61442 -1.02462,0.57442c0,0 0,0 0,0c0,0 0,0 0,0l-0.35355,-0.35355c-0.02797,-0.02797 0.09874,-0.17079 0.39522,-0.43187c0.80545,-0.70926 2.11182,-1.23523 2.35305,-0.994l0.35355,0.35355c0.02536,0.02536 0.03894,0.05919 0.03894,0.10218zM15.20007,20.47747l-0.35355,-0.35355c-0.01664,-0.01664 0.02775,-0.13833 0.13957,-0.36908c0.15977,-0.32968 0.43253,-0.72789 0.60614,-0.88489l0.31565,-0.28547l0.35355,0.35355v0.69019c0,0.84257 0.26229,2.13374 0.54656,2.6905c0.1893,0.37075 0.18956,0.47587 0.05754,0.34385l-0.35355,-0.35355c-0.08118,-0.08118 -0.21239,-0.25205 -0.38042,-0.50595l0.00002,0c-0.34595,-0.52277 -0.57163,-1.10394 -0.65092,-1.66506c-0.1652,0.24316 -0.26179,0.35825 -0.28058,0.33946zM16.4851,22.15662c0.04213,0.06367 0.08195,0.12211 0.11925,0.17523c-0.00429,-0.05325 -0.05162,-0.17415 -0.14992,-0.36669c-0.28427,-0.55676 -0.54656,-1.84793 -0.54656,-2.6905v-0.0147c-0.08563,0.08693 -0.18903,0.22014 -0.28966,0.36964l0.14884,0.14884c0.02533,0.02533 0.03209,0.13073 0.036,0.33092c0.01318,0.6735 0.25672,1.40451 0.68206,2.04724zM32.39203,17.97928l0.38887,0.3633c0.01472,0.01375 0.02973,0.02829 0.04496,0.04352l0.35355,0.35355c0.20608,0.20608 0.4526,0.5391 0.56669,0.76934l0.22277,0.44956l-0.35355,-0.35355l-0.40982,-0.48297l-0.00523,0.75175c-0.0051,0.80668 -0.40303,1.90364 -0.8137,2.24447c-0.03468,0.02878 -0.0587,0.03687 -0.07197,0.0236l-0.35355,-0.35355c-0.03778,-0.03778 0.0114,-0.24858 0.14951,-0.64834l0.00005,-0.00003c0.17038,-0.49317 0.27325,-1.22779 0.27632,-1.97316zM32.84672,19.52022l0.00566,-0.81435l0.35355,0.35355l0.33421,0.39387l-0.1476,-0.29786c-0.08856,-0.17871 -0.25689,-0.41934 -0.42417,-0.61446l-0.22279,-0.20814l-0.0051,1.18748c-0.00152,0.37043 -0.0277,0.73821 -0.07456,1.07501c0.10948,-0.3587 0.17869,-0.74169 0.1808,-1.0751zM20.27662,18.77406c-0.5459,-0.44767 -1.16602,-0.54079 -1.58726,-0.11955c-0.25572,0.25571 -0.29108,0.25634 -0.69439,0.0124c-0.23373,-0.14138 -0.53394,-0.22123 -0.66715,-0.17746c-0.03027,0.00995 -0.04884,0.01042 -0.05657,0.00269l-0.35355,-0.35355c-0.02628,-0.02628 0.07287,-0.14738 0.26394,-0.31318c0.24726,-0.21454 0.60129,-0.43184 0.78674,-0.48288c0.36138,-0.09945 0.4394,-0.48841 0.19104,-0.95248c-0.13088,-0.24455 -0.05658,-0.28511 0.7118,-0.3885c0.47187,-0.0635 1.06024,-0.0986 1.3075,-0.07802c0.53407,0.04449 1.72361,0.53506 2.01025,0.82169l0.12287,0.12287c0.19838,0.14634 0.33945,-0.05562 0.33945,-0.52384c0,-0.34105 0.04519,-0.42548 0.16411,-0.30658l0.35355,0.35355c0.18937,0.18937 0.26646,1.61243 0.09656,1.78276c-0.06266,0.06283 -0.29869,-0.06145 -0.52448,-0.27618c-0.72316,-0.68775 -1.9415,-1.20635 -2.62017,-1.11533c-0.61001,0.08182 -0.89188,0.28595 -0.82278,0.52036c0.06573,0.03821 0.14049,0.07605 0.22435,0.11318c0.12754,0.05645 0.26212,0.15855 0.39772,0.29415l0.35355,0.35355c0.72937,0.72937 1.48811,2.42797 1.33843,3.20547l-0.06501,0.33768l-0.35355,-0.35355l-0.02039,-0.33152c-0.01122,-0.18236 -0.1586,-0.7009 -0.3275,-1.15232c-0.14491,-0.38732 -0.34307,-0.72409 -0.56905,-0.99544zM20.09991,17.90844c-0.07619,-0.05962 -0.1512,-0.10665 -0.22393,-0.13884c-0.21157,-0.09365 -0.36517,-0.19191 -0.46223,-0.28897l-0.35355,-0.35355c-0.30394,-0.30394 -0.05348,-0.5961 0.70711,-0.69812c0.67866,-0.09102 1.89701,0.42758 2.62017,1.11533c0.22579,0.21473 0.46182,0.33901 0.52448,0.27618c0.08824,-0.08847 0.10986,-0.5149 0.08372,-0.93088c-0.03778,0.36278 -0.18863,0.4806 -0.38345,0.28578l-0.12832,-0.12832c-0.36367,-0.29024 -1.44851,-0.72803 -1.95164,-0.76994c-0.24726,-0.02058 -0.83563,0.01451 -1.3075,0.07802c-0.76838,0.10339 -0.84268,0.14395 -0.7118,0.3885c0.24836,0.46407 0.17035,0.85302 -0.19104,0.95248c-0.18545,0.05104 -0.53948,0.26834 -0.78674,0.48288c-0.01983,0.0172 -0.03866,0.03392 -0.05647,0.05011c0.0558,0.02462 0.11088,0.05294 0.1627,0.08428c0.40331,0.24395 0.43867,0.24331 0.69439,-0.0124c0.46878,-0.46878 1.18387,-0.30055 1.76886,0.28444l0.35355,0.35355c0,0 0,0 0,0c0.29693,0.29693 0.56034,0.70123 0.74101,1.18411c0.00066,0.00177 0.00132,0.00354 0.00198,0.00531c-0.17541,-0.73788 -0.62829,-1.65078 -1.1013,-2.21993zM29.17048,16.68679c0.01949,-0.04744 0.02782,-0.09313 0.02604,-0.13657c-0.19745,-0.06811 -0.46335,-0.09186 -0.76058,-0.05276c-0.67829,0.08925 -1.08918,0.3061 -2.07317,1.09414c-0.33727,0.27011 -0.65758,0.44675 -0.7118,0.39253l0,0l-0.35355,-0.35355c-0.15753,-0.15753 -0.11377,-1.66994 0.05126,-1.77195c0.03581,-0.02212 0.06878,-0.01733 0.09463,0.00852l0.35355,0.35355c0.03365,0.03365 0.05522,0.10301 0.05522,0.19517c0,0.07594 0.00152,0.1443 0.00513,0.20523c0.13135,-0.04995 0.3084,-0.15675 0.54574,-0.31647c0.86041,-0.57902 1.68071,-0.77733 2.88987,-0.69861c0.47408,0.03087 0.69199,0.06053 0.76435,0.13289l0.35355,0.35355c0.04092,0.04092 0.03529,0.09549 0.00311,0.17165c-0.13385,0.31684 -0.19518,0.51858 -0.15204,0.67716c0.09088,0.05126 0.20016,0.10501 0.32952,0.165c0.36394,0.16879 0.59009,0.29657 0.68305,0.38953l0.35355,0.35355c0.11365,0.11365 0.02819,0.17524 -0.248,0.19605c-0.17406,0.01315 -0.42694,0.12321 -0.56194,0.24465c-0.21761,0.19574 -0.28694,0.1871 -0.61063,-0.07609c-0.44867,-0.36482 -0.96186,-0.27038 -1.54504,0.28433c-0.43685,0.41552 -1.01194,1.75452 -1.01194,2.35614c0,0.19808 -0.05585,0.39468 -0.12408,0.43685c-0.0079,0.00489 -0.01489,0.00406 -0.02097,-0.00202l-0.35355,-0.35355c-0.04639,-0.04639 -0.03954,-0.39872 0.02066,-0.85068l-0.00009,-0.00009c0.1561,-1.17276 0.80875,-2.48347 1.43284,-2.8776c0.26101,-0.16484 0.5154,-0.39908 0.5653,-0.52053zM29.8538,17.86039c0.32369,0.26319 0.39303,0.27182 0.61063,0.07609c0.135,-0.12144 0.38788,-0.2315 0.56194,-0.24465c0.13459,-0.01014 0.22388,-0.02996 0.26692,-0.06077c-0.09733,-0.05165 -0.21339,-0.10863 -0.34841,-0.17125c-0.27887,-0.12933 -0.46444,-0.22963 -0.57344,-0.33863l-0.35355,-0.35355c-0.17942,-0.17942 -0.15142,-0.38243 0.00928,-0.77729c-0.103,-0.0111 -0.22871,-0.02088 -0.38078,-0.03078c-1.20917,-0.07872 -2.02946,0.11958 -2.88987,0.69861c-0.45783,0.3081 -0.69132,0.41925 -0.80517,0.3054l-0.35355,-0.35355c-0.00277,-0.00277 -0.00546,-0.00567 -0.00809,-0.0087c-0.03476,0.27971 -0.046,0.65556 -0.0285,0.94681c0.12679,-0.07138 0.28544,-0.17987 0.44802,-0.31008c0.984,-0.78804 1.39488,-1.00489 2.07317,-1.09414c0.46029,-0.06056 0.84543,0.02964 1.01762,0.20183l0.35355,0.35355c0.09327,0.09327 0.12406,0.2106 0.07047,0.34106c-0.04991,0.12145 -0.30429,0.35569 -0.5653,0.52053c-0.13506,0.08529 -0.27145,0.21351 -0.40386,0.37396c0.48264,-0.36244 0.91446,-0.38704 1.29892,-0.07444zM23.41065,14.80185c0.2992,-0.32156 0.5763,-1.47155 0.60783,-2.5227c0.00772,-0.25739 0.01548,-0.38682 0.03354,-0.36876c0,0 0,0 0,0c0,0 0,0 0,0l0.35355,0.35355c0.02036,0.02036 0.05381,0.22819 0.11504,0.65146c0.07155,0.49452 0.25244,1.3398 0.402,1.87839c0.26087,0.93951 0.26109,0.99714 0.00566,1.41988c-0.14659,0.24234 -0.31143,0.74576 -0.36633,1.11869c-0.05488,0.37294 -0.15362,0.81295 -0.2194,0.97777c-0.04415,0.11064 -0.07363,0.16035 -0.09361,0.14036l-0.35355,-0.35355c-0.02319,-0.02319 -0.03361,-0.14025 -0.03934,-0.36487l-0.00027,-0.00027c-0.00736,-0.28847 -0.17489,-0.99652 -0.37232,-1.57346c-0.35375,-1.03378 -0.35479,-1.05343 -0.07281,-1.35649zM24.2084,16.9788c0.0549,-0.37293 0.21974,-0.87634 0.36633,-1.11869c0.25543,-0.42274 0.25521,-0.48038 -0.00566,-1.41988c-0.08353,-0.30082 -0.17684,-0.6973 -0.25541,-1.07491c-0.10231,0.80549 -0.31935,1.54278 -0.54945,1.79008c-0.28198,0.30306 -0.28094,0.32271 0.07281,1.35649c0.10881,0.31798 0.20854,0.67578 0.27738,0.98121c0.03556,-0.16413 0.06925,-0.34604 0.09401,-0.5143zM11.62813,14.50996c-0.06426,-0.1248 -0.15251,-0.2555 -0.25052,-0.37646c-0.05059,-0.03887 -0.09958,-0.07091 -0.1452,-0.09418l-0.44063,-0.22478l-0.35355,-0.35355l0.57241,-0.04714c0.40944,-0.03372 0.661,0.01722 0.88669,0.2429l0.35355,0.35355c0.1417,0.1417 0.2732,0.3523 0.42716,0.65409c0.05277,0.10344 0.11413,0.20059 0.18488,0.29221c0.13391,0.10552 0.28727,0.20283 0.46213,0.29386l0.70967,0.36944l0.35355,0.35355l-0.52448,0.00674c-0.28847,0.00397 -0.76051,-0.11117 -1.04898,-0.25527v0.00002c-0.15021,-0.07504 -0.30202,-0.18952 -0.44022,-0.32772l-0.35355,-0.35355c-0.15536,-0.15536 -0.29353,-0.34071 -0.39291,-0.5337zM12.46126,15.37137c0.28847,0.1441 0.76051,0.25924 1.04898,0.25527l0.20673,-0.00266l-0.03836,-0.01997c-0.2647,-0.1378 -0.48014,-0.29 -0.65342,-0.46328l-0.35355,-0.35355c-0.14314,-0.14314 -0.25752,-0.30067 -0.34715,-0.47635c-0.09016,-0.17672 -0.17261,-0.32218 -0.25392,-0.44083c-0.18427,-0.10589 -0.40158,-0.1277 -0.70637,-0.1026l-0.32223,0.02653c0.05224,0.04148 0.10596,0.08991 0.15927,0.14322l0.35355,0.35355c0.16477,0.16477 0.32563,0.37612 0.4269,0.57281c0.06139,0.11922 0.13758,0.23552 0.22348,0.34364c0.084,0.06566 0.1703,0.12138 0.25609,0.16424zM17.6061,14.69728c-0.09875,-0.51947 -0.29191,-0.95281 -0.58548,-1.31144c-0.57141,-0.45257 -1.54384,-0.70655 -2.4276,-0.68573c0.12147,0.05259 0.224,0.12849 0.32851,0.23283c0.00059,0.00059 0.00117,0.00117 0.00176,0.00176l0.35355,0.35355c0.23175,0.23175 0.25043,0.32756 0.10023,0.50852c-0.09212,0.111 -0.11488,0.25466 -0.09265,0.38614c0.03631,-0.00801 0.07334,-0.0263 0.11005,-0.05677c0.1182,-0.09812 0.26706,-0.37959 0.33078,-0.62549l0.11585,-0.4471l1.03219,0.96421l0.35355,0.35355l-0.27798,0.24838c0.13746,-0.04211 0.21837,-0.02365 0.31318,0.07115l0.35355,0.35355c0.01718,0.01718 0.03482,0.03688 0.05334,0.05917c0.0009,-0.06418 -0.02316,-0.19748 -0.06285,-0.40629zM17.09908,15.05489c-0.36714,0.16729 -0.58758,0.21684 -0.64279,0.16163l-0.35355,-0.35355c-0.05106,-0.05106 0.03922,-0.19175 0.28549,-0.4118l0.47232,-0.42203l-0.6659,-0.62204l-0.11585,0.4471c-0.06372,0.24591 -0.21258,0.52737 -0.33078,0.62549c-0.11782,0.09778 -0.23889,0.07006 -0.32885,-0.01989c0,0 0,0 0,0l-0.35355,-0.35355c-0.14689,-0.14689 -0.21081,-0.45974 -0.0421,-0.66304c0.10029,-0.12083 0.12529,-0.2037 0.06183,-0.31442c-0.24261,-0.15974 -0.53674,-0.1952 -1.10915,-0.16222c-0.4775,0.0275 -0.53189,0.31501 -0.18528,0.97959c0.20292,0.38909 0.20214,0.41243 -0.00792,0.2381c-0.02465,-0.02046 -0.05352,-0.04734 -0.08527,-0.07908l-0.35355,-0.35355c-0.1332,-0.1332 -0.31703,-0.35211 -0.45239,-0.54221l-0.30477,-0.42801l0.53173,-0.22217c1.06752,-0.44604 2.87412,-0.16493 3.66081,0.56963c0.02262,0.02112 0.0448,0.04255 0.06654,0.06429l0.35355,0.35355c0.39288,0.39288 0.64286,0.88789 0.76001,1.50411c0.07429,0.3908 0.0938,0.51713 -0.00253,0.4208l-0.35355,-0.35355c-0.03106,-0.03106 -0.07416,-0.08526 -0.13135,-0.16121c-0.08924,-0.01904 -0.19638,0.01749 -0.37313,0.09803zM13.24534,13.56298c0.07517,0.10557 0.1653,0.22003 0.25339,0.32376c0.13775,0.10667 0.11605,0.04608 -0.06137,-0.29412c-0.12419,-0.23812 -0.1969,-0.42783 -0.21711,-0.57451l-0.27969,0.11686zM35.84552,13.37221c0.34972,-0.68551 0.77524,-0.94719 1.31811,-0.8106l0.39814,0.10017l0.35355,0.35355l-0.47831,0.20138c-0.36708,0.15456 -0.51588,0.34091 -0.63987,0.80131c-0.11263,0.41828 -0.3081,0.69001 -0.64559,0.89744c-0.54284,0.33365 -1.43657,0.54111 -1.58634,0.39134l-0.35355,-0.35355c-0.0141,-0.0141 -0.0216,-0.03136 -0.0216,-0.05199c0,-0.0916 0.09599,-0.16654 0.21328,-0.16654c0.34225,0 1.12371,-0.73831 1.44218,-1.36253zM36.44361,13.66448c0.10268,-0.3813 0.22239,-0.57463 0.469,-0.7176c-0.27052,0.11316 -0.50544,0.371 -0.71353,0.77889c-0.19321,0.37871 -0.55684,0.79942 -0.88942,1.07177c0.1739,-0.06664 0.3436,-0.14664 0.48836,-0.23561c0.33749,-0.20743 0.53296,-0.47916 0.64559,-0.89744zM19.46069,14.53701c0,0 0,0 0,0c0,0 0,0 0,0l-0.35355,-0.35355c-0.03747,-0.03747 -0.05231,-0.08721 -0.05231,-0.15234c0,-0.13973 -0.18544,-0.4487 -0.4121,-0.68663l-0.4121,-0.43259l0.76832,0.2906c0.81387,0.30784 1.05883,0.45712 1.84802,1.12628c0.11479,0.09733 0.20593,0.18035 0.27369,0.24812l0.35355,0.35355c0.28095,0.28095 0.16019,0.29967 -0.34253,-0.01172l0.00002,0.00002c-0.25286,-0.15661 -0.72823,-0.27879 -1.08644,-0.27924c-0.33525,-0.00038 -0.50763,-0.02556 -0.58457,-0.1025zM20.77813,14.56519c0.39358,0.24378 0.55304,0.28524 0.46892,0.15693c-0.01505,-0.01298 -0.03056,-0.02624 -0.04653,-0.03978c-0.7892,-0.66916 -1.03415,-0.81844 -1.84802,-1.12628l-0.76832,-0.2906l0.4121,0.43259c0.17817,0.18703 0.33087,0.41795 0.38805,0.57607c0.08263,0.0082 0.18397,0.0117 0.30737,0.01184c0.35821,0.00045 0.83358,0.12263 1.08644,0.27924zM29.55399,12.64405l0.35355,0.35355c0.03399,0.03399 -0.06359,0.18313 -0.24099,0.36056c-0.2023,0.2023 -0.36782,0.50575 -0.36782,0.67434c0,0.2542 -0.09592,0.30661 -0.56194,0.30708c-0.30908,0.00031 -0.78111,0.13419 -1.04898,0.29751c-0.24091,0.14688 -0.44243,0.22258 -0.48054,0.18447c0,0 0,0 0,0l-0.35355,-0.35355c-0.00426,-0.00426 -0.00648,-0.00994 -0.00648,-0.01711l-0.00002,-0.00002c0,-0.32014 2.21082,-1.81409 2.68459,-1.81409c0.01007,0 0.01742,0.0025 0.02219,0.00726zM28.38323,13.98602c0.46602,-0.00047 0.56194,-0.05288 0.56194,-0.30708c0,-0.087 0.04408,-0.20993 0.11456,-0.33633c-0.34227,0.19585 -0.72813,0.44847 -1.05925,0.69141c0.13733,-0.03024 0.27074,-0.04789 0.38275,-0.04801zM33.76647,11.81258c0.76914,0 1.17926,0.0452 1.33225,0.19819l0.35355,0.35355c0.11902,0.11902 0.08242,0.30327 -0.06183,0.58223c-0.12522,0.24213 -0.34619,0.53648 -0.49108,0.6541c-0.11941,0.09694 -0.18005,0.13917 -0.19191,0.12732l-0.35355,-0.35355c-0.00892,-0.00892 0.00981,-0.0485 0.05194,-0.11845c0.06791,-0.11274 0.175,-0.43354 0.238,-0.71286c0.02378,-0.10541 0.04069,-0.18974 0.04865,-0.25809c-0.42013,-0.08489 -0.88836,0.03004 -1.27279,0.31502c-0.25793,0.19119 -0.27311,0.26569 -0.10896,0.53445c0.14709,0.24082 0.15096,0.3866 0.01694,0.63702l-0.1738,0.32473l-0.35355,-0.35355l-0.2792,-0.34478c-0.08204,-0.10131 -0.15611,-0.21952 -0.2073,-0.32512c-0.08092,0.05572 -0.17848,0.14393 -0.29163,0.26436c-0.27955,0.29757 -0.36925,0.53512 -0.2632,0.75492c0.02264,0.01493 0.04625,0.02988 0.07084,0.04487c0.16067,0.09796 0.26585,0.17023 0.31322,0.2176l0.35355,0.35355c0.11443,0.11443 -0.1084,0.08364 -0.70099,-0.0809c-0.49505,-0.13746 -0.60584,-0.1217 -0.79602,0.11322c-0.09013,0.11134 -0.14211,0.16671 -0.16417,0.14464l-0.35355,-0.35355c-0.02709,-0.02709 -0.00908,-0.17089 0.03877,-0.47113l0.00002,0.00002c0.1453,-0.91163 0.53165,-1.44692 1.34723,-1.86664c0.60536,-0.31152 0.95223,-0.38117 1.89857,-0.38117zM31.44208,14.27365c0.31223,0.0867 0.52181,0.13626 0.63349,0.14702c-0.07324,-0.05065 -0.13522,-0.10108 -0.186,-0.15186l-0.35355,-0.35355c-0.27143,-0.27143 -0.22315,-0.55293 0.13263,-0.93165c0.26772,-0.28498 0.44817,-0.38949 0.52747,-0.31019l0.35355,0.35355c0,0 0,0 0,0c0.03029,0.03029 0.04583,0.08741 0.04583,0.17153c0,0.10265 0.10098,0.31329 0.23253,0.49243l0.14609,-0.27296c0.13402,-0.25042 0.13015,-0.3962 -0.01694,-0.63702c-0.16416,-0.26876 -0.14897,-0.34326 0.10896,-0.53445c0.00682,-0.00506 0.01367,-0.01006 0.02054,-0.01501c-0.30009,0.05509 -0.54693,0.15202 -0.86523,0.31583c-0.74733,0.3846 -1.13427,0.86624 -1.30558,1.64555c0.11486,-0.02081 0.26845,0.00922 0.52621,0.08079zM35.1674,12.23464c-0.10388,-0.02344 -0.23241,-0.03983 -0.38803,-0.05069l0.21868,0.21868c0.03776,0.03776 0.05387,0.08801 0.0531,0.16239c0.06557,-0.13054 0.10607,-0.23959 0.11625,-0.33038zM15.96936,9.09079c0.06758,0.04424 0.15288,0.11832 0.24241,0.20785l0.35355,0.35355c0.1354,0.1354 0.28046,0.30612 0.38847,0.46233c0.03374,0.01023 0.05983,0.0042 0.0751,-0.0205c0.05254,-0.08502 0.19819,-0.15457 0.32369,-0.15457c0.04899,0 0.0836,0.00742 0.10295,0.02677l0.35355,0.35355c0.05379,0.05379 -0.01023,0.19982 -0.2107,0.53519c-0.34499,0.57714 -0.50582,0.7958 -0.56254,0.73908c0,0 0,0 0,0l-0.35355,-0.35355c-0.01754,-0.01754 -0.02512,-0.06139 -0.02512,-0.12911v-0.00002c0,-0.13019 -0.22523,-0.6842 -0.50049,-1.23115c-0.43346,-0.86125 -0.45855,-0.96698 -0.18732,-0.78941zM17.24483,10.5014c0.00979,-0.01638 0.01925,-0.0323 0.02839,-0.04779c-0.03737,-0.01978 -0.08109,-0.05434 -0.12816,-0.10141l-0.35355,-0.35355c-0.05794,-0.05794 -0.12098,-0.13484 -0.18356,-0.22646c-0.06106,-0.08939 -0.13473,-0.18397 -0.21215,-0.27427c-0.02593,-0.02081 -0.05039,-0.03885 -0.07289,-0.05358c-0.27123,-0.17757 -0.24614,-0.07184 0.18732,0.78941c0.15011,0.29827 0.28534,0.59864 0.37728,0.83123c0.08754,-0.12219 0.20432,-0.30764 0.35731,-0.56359zM31.1868,9.29013c0.12704,-0.24715 0.39956,-0.55541 0.60561,-0.68501c0.1893,-0.11907 0.27939,-0.17311 0.29251,-0.15998l0.35355,0.35355c0.01103,0.01103 -0.03233,0.06954 -0.11686,0.17677c-0.10944,0.13883 -0.35339,0.69433 -0.54211,1.23442l-0.34314,0.98199l-0.35355,-0.35355l-0.40571,-0.61303c-0.41884,-0.6329 -0.40563,-0.91743 0.02985,-0.64276c0.20218,0.12752 0.2922,0.07267 0.47983,-0.29239zM31.12413,10.72007l0.30182,-0.86375c0.00291,-0.00833 0.00583,-0.01666 0.00877,-0.02499c-0.12398,0.19229 -0.21379,0.20592 -0.3742,0.10474c-0.43548,-0.27467 -0.44869,0.00986 -0.02985,0.64276z" fill="url(#color-1)" stroke-width="1"></path><path d="M21.60234,39.31943c-1.32644,-0.45921 -2.09795,-1.60005 -2.09795,-3.10226c0,-0.58544 -0.60186,-1.98827 -1.42121,-3.31264c-0.21671,-0.35029 -0.35205,-0.63688 -0.30075,-0.63688c0.46097,0 1.31679,1.07164 2.19949,2.75417l0.4026,0.7674l0.00952,-0.62462c0.01824,-1.19969 0.13596,-1.19646 1.01899,0.02798c0.47794,0.66273 0.9018,1.10981 1.01207,1.0675c0.2061,-0.07908 0.52595,0.17225 0.52595,0.41328c0,0.08325 -0.07992,0.06993 -0.17982,-0.02996c-0.25686,-0.25686 -0.49217,-0.22306 -0.27434,0.03942c0.14386,0.17334 0.13534,0.31266 -0.04072,0.66554l-0.22265,0.44631l0.83345,0.10413c0.90448,0.113 3.66284,0.00396 3.92016,-0.15531c0.10701,-0.06613 0.0832,-0.24414 -0.07309,-0.54634c-0.22929,-0.4434 -0.22157,-0.46426 0.71235,-1.92483c0.51929,-0.81212 0.97639,-1.44536 1.01579,-1.40722c0.03942,0.03812 0.10976,0.41924 0.15635,0.84689l0.08472,0.77754l0.25413,-0.59941c0.13977,-0.32968 0.32168,-0.70057 0.40426,-0.8242c0.08258,-0.12363 0.31265,-0.52824 0.51127,-0.89912c0.38119,-0.7118 1.07923,-1.45948 1.22576,-1.31295c0.0478,0.0478 -0.18238,0.5819 -0.51148,1.18693c-0.68798,1.26485 -1.07297,2.45497 -0.9694,2.99674c0.19051,0.99657 -0.64582,2.40937 -1.76392,2.97979c-0.61171,0.31207 -1.23616,0.39428 -3.88401,0.51131c-1.44185,0.06372 -1.85794,0.02956 -2.54752,-0.20917zM22.0519,37.43761c0.1533,-0.18471 0.14145,-0.22478 -0.06643,-0.22478c-0.13914,0 -0.38901,-0.0728 -0.55527,-0.16178c-0.28066,-0.15021 -0.28485,-0.18105 -0.0586,-0.43105c0.2251,-0.24873 0.22486,-0.27649 -0.00283,-0.36397c-0.14214,-0.05454 -0.21049,-0.18934 -0.16117,-0.31787c0.08326,-0.21696 -0.47751,-1.34939 -0.60504,-1.22186c-0.03506,0.03506 0.01461,0.51386 0.11038,1.06393c0.11479,0.65919 0.30067,1.15048 0.54525,1.44115c0.42221,0.50177 0.53217,0.53171 0.794,0.21623zM28.11213,36.95059c0.26478,-0.40209 0.39671,-0.86036 0.46378,-1.61093l0.09374,-1.04898l-0.38673,0.65218c-0.42184,0.7114 -0.46466,0.83729 -0.23688,0.69651c0.24211,-0.14963 0.17158,0.17006 -0.0844,0.3825c-0.21201,0.17595 -0.21122,0.20729 0.00833,0.33015c0.33145,0.18549 0.01897,0.56111 -0.46675,0.56111c-0.41876,0 -0.46621,0.22079 -0.09404,0.43756c0.14423,0.08401 0.27815,0.1548 0.29758,0.1573c0.01943,0.00227 0.20186,-0.24832 0.40538,-0.55739zM24.29971,36.84495c0,-0.24448 0.32784,-0.6811 0.51141,-0.6811c0.11064,0 0.29371,0.11801 0.40683,0.26225c0.18918,0.24123 0.18327,0.24462 -0.07375,0.04231c-0.25173,-0.19812 -0.30742,-0.18535 -0.56195,0.12899c-0.15539,0.19191 -0.28253,0.30329 -0.28253,0.24753zM25.50187,36.81731c-0.0017,-0.09389 0.12719,-0.32991 0.28671,-0.52449c0.27961,-0.34106 0.29981,-0.34406 0.56195,-0.08343c0.26262,0.2611 0.26229,0.2667 -0.00952,0.16393c-0.20075,-0.07591 -0.36088,-0.00283 -0.55862,0.25414c-0.15246,0.19831 -0.2787,0.28374 -0.28054,0.18984zM23.77507,36.61315c-0.0578,-0.09352 -0.20896,-0.13018 -0.33591,-0.08147c-0.19437,0.07459 -0.19993,0.05137 -0.03517,-0.14716c0.17541,-0.21135 0.2193,-0.21207 0.42437,-0.00702c0.1258,0.1258 0.18893,0.26854 0.14027,0.3172c-0.04865,0.04865 -0.13575,0.01195 -0.19355,-0.08158zM20.32858,33.61791c-0.50415,-0.33209 -1.49415,-1.87498 -1.74911,-2.72595c-0.12583,-0.41999 -0.28244,-0.59828 -0.63267,-0.72024c-0.25599,-0.08915 -0.73518,-0.3378 -1.06486,-0.55257c-0.59117,-0.38511 -0.59502,-0.38556 -0.27977,-0.0324c0.45555,0.51038 0.76484,1.17488 0.86657,1.86183l0.088,0.59424l-0.23472,-0.62855c-0.1291,-0.3457 -0.48939,-0.91553 -0.80065,-1.26628l-0.56593,-0.63773l-0.10789,0.42988c-0.05934,0.23643 -0.20491,0.56838 -0.32348,0.73767c-0.19889,0.28396 -0.21586,0.2443 -0.21914,-0.51228c-0.00227,-0.52285 -0.1378,-1.14595 -0.37394,-1.7192c-0.41485,-1.00706 -0.41859,-1.02067 -0.25243,-0.91798c0.06564,0.04055 -0.06689,-0.30949 -0.29451,-0.77789c-0.22762,-0.4684 -0.45603,-1.05395 -0.50758,-1.30121c-0.05672,-0.27203 0.0888,-0.07519 0.36848,0.49847c0.66006,1.35384 1.73433,2.65225 2.85763,3.45386c0.9285,0.6626 1.02348,0.69553 2.15627,0.74738c1.22487,0.05607 2.50164,-0.19478 3.80456,-0.74748c0.35028,-0.14859 0.63688,-0.23513 0.63688,-0.19232c0,0.12453 -1.58247,0.78971 -2.32133,0.97576l-0.67575,0.17015v1.4906c0,0.81983 0.06981,1.62104 0.15512,1.78046c0.19721,0.36848 0.0384,0.36602 -0.52976,-0.00827zM19.68268,31.44344c-0.0469,-0.4016 -0.13054,-0.52449 -0.35703,-0.52449c-0.16269,0 -0.27116,0.05058 -0.24104,0.11239c0.54062,1.10958 0.69165,1.21364 0.59807,0.4121zM28.36,33.12929c0.14265,-0.48525 0.03534,-2.64941 -0.14445,-2.91395c-0.05199,-0.07651 -0.46545,-0.22494 -0.91876,-0.32982c-0.45331,-0.10489 -1.09393,-0.32144 -1.42361,-0.48121c-0.32968,-0.15977 -0.46455,-0.24947 -0.29971,-0.19932c2.38437,0.7254 4.21577,0.85805 5.24489,0.3799c1.29009,-0.59941 2.87877,-2.43178 3.62817,-4.1847c0.28851,-0.67486 0.34547,-0.74387 0.27637,-0.33492c-0.04786,0.28331 -0.25484,0.88168 -0.45996,1.32972c-0.24199,0.52858 -0.29413,0.7492 -0.14848,0.62832c0.15784,-0.131 0.127,0.0303 -0.1039,0.54346c-0.22722,0.50496 -0.33093,1.03701 -0.33668,1.72723c-0.00912,1.09751 -0.21619,1.16069 -0.54442,0.16612l-0.17681,-0.53574l-0.29154,0.36041c-0.16034,0.19823 -0.48574,0.76501 -0.7231,1.25953c-0.23736,0.49451 -0.43429,0.79797 -0.43761,0.67434c-0.01297,-0.48353 0.34001,-1.44822 0.70853,-1.93628c0.39556,-0.52386 0.3011,-0.50991 -0.49146,0.07256c-0.24726,0.18172 -0.60114,0.37644 -0.78639,0.43271c-0.19966,0.06065 -0.37451,0.26605 -0.42937,0.50442c-0.20489,0.89026 -1.12672,2.5748 -1.61125,2.94437c-0.64409,0.49128 -0.70289,0.4794 -0.53047,-0.10713zM29.73919,31.14373c0.23931,-0.50183 0.23797,-0.52449 -0.03075,-0.52449c-0.20945,0 -0.29646,0.13339 -0.34212,0.52449c-0.0337,0.28847 -0.01982,0.52449 0.03075,0.52449c0.05058,0 0.20456,-0.23601 0.34212,-0.52449zM18.50922,28.53287c-0.57498,-0.3506 -0.73577,-0.5884 -0.53417,-0.79c0.10394,-0.10395 0.20836,-0.04922 0.32619,0.17093c0.09532,0.1781 0.38816,0.45482 0.65076,0.61494c0.2626,0.16013 0.37631,0.29113 0.25268,0.29113c-0.12363,0 -0.43658,-0.12915 -0.69546,-0.287zM24.1707,28.34912c-0.16447,-0.26336 -0.16177,-0.35055 0.01637,-0.52868c0.32693,-0.32694 0.59966,0.06099 0.35901,0.51065l-0.17843,0.33341zM30.044,28.05334c0.30226,-0.24915 0.54957,-0.54924 0.54957,-0.66687c0,-0.25872 0.2401,-0.28169 0.39107,-0.03744c0.12403,0.20068 -0.69846,0.95024 -1.18125,1.0765c-0.21401,0.05596 -0.14006,-0.05843 0.24061,-0.37221zM19.30603,27.88441c-0.62452,-0.83685 -0.76145,-1.18064 -0.52893,-1.32798c0.33632,-0.21312 0.42757,-0.15311 0.42757,0.28122c0,0.22788 0.135,0.66619 0.3,0.97405c0.3694,0.68922 0.28461,0.72026 -0.19864,0.07271zM22.70093,27.9574c-0.28484,-0.13691 -0.62645,-0.50451 -0.85365,-0.91862c-0.41549,-0.75729 -0.94498,-1.36607 -1.74599,-2.00745c-0.28709,-0.22988 -0.37468,-0.34789 -0.19466,-0.26224c0.18003,0.08564 0.46997,0.15571 0.64432,0.15571c0.82321,0 1.92952,1.20179 2.17186,2.35931c0.05596,0.26737 0.21395,0.54891 0.35106,0.62564c0.43715,0.24464 0.12095,0.28505 -0.37295,0.04769zM25.76078,27.73932c0.18544,-0.19869 0.33865,-0.49178 0.34046,-0.6513c0.00566,-0.47542 0.52625,-1.45875 1.01658,-1.91924c0.25204,-0.23669 0.71652,-0.47758 1.03219,-0.53531l0.57394,-0.10495l-0.67612,0.69508c-0.37187,0.3823 -0.87843,1.0923 -1.12568,1.57779c-0.34832,0.68392 -0.56768,0.92961 -0.97405,1.09095l-0.52449,0.20824zM29.18005,27.71004c0.1547,-0.24013 0.31687,-0.7324 0.36037,-1.09392c0.07339,-0.60994 0.09921,-0.64253 0.35822,-0.45218c0.27157,0.19958 0.27098,0.2211 -0.02152,0.79422c-0.16535,0.324 -0.45313,0.72395 -0.6395,0.88879l-0.33885,0.29971zM22.41859,24.94214c-0.32531,-0.23771 -0.92865,-0.5396 -1.34074,-0.67087l-0.74927,-0.23867l0.71455,0.05335c0.48042,0.03585 0.91692,0.19431 1.33221,0.48356c0.33972,0.2366 0.75995,0.51349 0.93385,0.61531c0.31426,0.18398 0.31431,0.18512 0.00855,0.18731c-0.16921,0.00113 -0.57381,-0.19228 -0.89912,-0.43zM25.80391,24.76763c0.89011,-0.78382 2.392,-1.34377 2.392,-0.89182c0,0.08242 -0.19462,0.14985 -0.43249,0.14985c-0.25506,0 -0.80074,0.24592 -1.33012,0.59942c-1.06784,0.71307 -1.34982,0.77693 -0.6294,0.14255zM16.13157,21.80307c-0.42534,-0.64274 -0.66888,-1.37374 -0.68205,-2.04725c-0.0079,-0.40372 -0.02737,-0.42194 -0.18732,-0.17533c-0.42363,0.65317 -0.54541,0.73006 -0.2761,0.17434c0.15976,-0.32968 0.43253,-0.72788 0.60614,-0.88488l0.31565,-0.28547v0.69019c0,0.84257 0.26229,2.13374 0.54656,2.6905c0.3057,0.59875 0.11839,0.5047 -0.32288,-0.1621zM32.1106,21.13992c0.17037,-0.49317 0.27325,-1.22779 0.27632,-1.97317l0.0051,-1.18749l0.38887,0.36329c0.21388,0.19981 0.48912,0.5656 0.61164,0.81286l0.22277,0.44956l-0.38147,-0.44956l-0.38147,-0.44956l-0.00566,0.81435c-0.0051,0.80668 -0.40303,1.90364 -0.8137,2.24447c-0.13334,0.11066 -0.10912,-0.08448 0.07753,-0.62475zM21.17318,20.92182c-0.01121,-0.18236 -0.1586,-0.7009 -0.3275,-1.15233c-0.5366,-1.4342 -1.80314,-2.17527 -2.50986,-1.46854c-0.25572,0.25571 -0.29108,0.25635 -0.69439,0.0124c-0.23372,-0.14137 -0.53394,-0.22123 -0.66715,-0.17745c-0.13321,0.04378 -0.03989,-0.09594 0.20737,-0.31048c0.24726,-0.21454 0.60129,-0.43183 0.78673,-0.48288c0.36139,-0.09946 0.4394,-0.4884 0.19104,-0.95248c-0.13088,-0.24456 -0.05659,-0.28511 0.71181,-0.3885c0.47187,-0.0635 1.06024,-0.0986 1.3075,-0.07801c0.55142,0.04593 1.8016,0.5674 2.03529,0.84897c0.24819,0.29904 0.4373,0.11385 0.4373,-0.42823c0,-0.34105 0.0452,-0.42548 0.16411,-0.30657c0.18937,0.18937 0.26646,1.61243 0.09657,1.78276c-0.06267,0.06283 -0.29869,-0.06145 -0.52449,-0.27618c-0.72316,-0.68775 -1.9415,-1.20635 -2.62017,-1.11532c-1.00347,0.13459 -1.11898,0.60017 -0.24488,0.98709c0.81359,0.36013 1.91366,2.57757 1.73615,3.49962l-0.06501,0.33767zM27.17234,20.08492c0.1561,-1.17276 0.80875,-2.48347 1.43284,-2.87761c0.26101,-0.16484 0.5154,-0.39908 0.56529,-0.52053c0.15254,-0.37131 -0.37849,-0.63624 -1.08809,-0.54288c-0.67829,0.08924 -1.08918,0.3061 -2.07317,1.09414c-0.33728,0.27011 -0.65759,0.44675 -0.71181,0.39253c-0.15753,-0.15753 -0.11376,-1.66994 0.05126,-1.77194c0.08242,-0.05092 0.14986,0.04072 0.14986,0.20368c0,0.72185 0.13721,0.75861 0.90442,0.24232c0.86042,-0.57902 1.68071,-0.77732 2.88987,-0.6986c0.74217,0.04831 0.85654,0.0937 0.76746,0.30455c-0.29724,0.70358 -0.23683,0.83961 0.53103,1.19572c0.80891,0.37515 0.93714,0.54775 0.43505,0.58558c-0.17406,0.01314 -0.42694,0.1232 -0.56195,0.24465c-0.2176,0.19573 -0.28695,0.1871 -0.61064,-0.07609c-0.44868,-0.36482 -0.96186,-0.27038 -1.54504,0.28433c-0.43685,0.41553 -1.01195,1.75453 -1.01195,2.35613c0,0.19809 -0.05584,0.39467 -0.12409,0.43686c-0.06824,0.0422 -0.06841,-0.34159 -0.0003,-0.85282zM23.85577,17.7318c-0.00736,-0.28847 -0.17489,-0.99652 -0.37231,-1.57346c-0.35374,-1.03378 -0.3548,-1.05343 -0.0728,-1.35648c0.29921,-0.32155 0.57629,-1.47154 0.60784,-2.52271c0.01642,-0.54758 0.03302,-0.516 0.14858,0.2827c0.07155,0.49452 0.25245,1.33979 0.402,1.87838c0.26088,0.93951 0.26109,0.99714 0.00566,1.41988c-0.14658,0.24234 -0.31143,0.74575 -0.36633,1.1187c-0.05488,0.37294 -0.15363,0.81294 -0.2194,0.97778c-0.09541,0.2391 -0.1223,0.19363 -0.13296,-0.22478zM12.46125,15.37138c-0.31909,-0.15941 -0.64536,-0.49676 -0.83313,-0.86143c-0.16975,-0.32968 -0.50692,-0.70056 -0.74927,-0.82419l-0.44063,-0.22478l0.57241,-0.04713c0.66651,-0.05488 0.91468,0.11455 1.31385,0.89698c0.19812,0.38835 0.5172,0.688 1.00056,0.93963l0.70967,0.36945l-0.52449,0.00674c-0.28847,0.00396 -0.76051,-0.11116 -1.04898,-0.25527zM17.38946,14.8456c-0.21419,-0.29016 -0.28761,-0.30661 -0.64393,-0.14426c-0.70672,0.322 -0.86984,0.20779 -0.3573,-0.25016l0.48507,-0.43341l-0.5161,-0.48211l-0.5161,-0.48211l-0.11586,0.44711c-0.06372,0.24591 -0.21258,0.52738 -0.33079,0.62548c-0.31022,0.25746 -0.64298,-0.35515 -0.37095,-0.68292c0.15057,-0.18143 0.13142,-0.27725 -0.10199,-0.51028c-0.29377,-0.2933 -0.5719,-0.3618 -1.29889,-0.31991c-0.4775,0.02751 -0.53188,0.31502 -0.18528,0.9796c0.20292,0.38909 0.20214,0.41243 -0.00792,0.23809c-0.12809,-0.1063 -0.37003,-0.38589 -0.53766,-0.62129l-0.30477,-0.42801l0.53174,-0.22217c1.06752,-0.44604 2.87412,-0.16493 3.6608,0.56962c0.43134,0.40276 0.70292,0.91809 0.82654,1.5684c0.10865,0.57156 0.10012,0.57741 -0.21661,0.14833zM34.19006,14.90127c0,-0.09159 0.09598,-0.16653 0.21328,-0.16653c0.34226,0 1.12372,-0.7383 1.44217,-1.36253c0.34972,-0.6855 0.77524,-0.94718 1.31812,-0.8106l0.39815,0.10017l-0.47832,0.20138c-0.36708,0.15455 -0.51588,0.34091 -0.63986,0.80132c-0.11264,0.41828 -0.30811,0.69001 -0.64559,0.89744c-0.59395,0.36506 -1.60795,0.57905 -1.60795,0.33935zM20.77814,14.56521c-0.25285,-0.15661 -0.72822,-0.2788 -1.08644,-0.27924c-0.49851,-0.00057 -0.63688,-0.05596 -0.63688,-0.25483c0,-0.13972 -0.18544,-0.44871 -0.4121,-0.68663l-0.4121,-0.43258l0.76832,0.2906c0.81388,0.30783 1.05883,0.45712 1.84803,1.12628c0.59067,0.50084 0.55514,0.62289 -0.06884,0.23641zM26.84722,14.45088c0,-0.32014 2.21082,-1.81409 2.68459,-1.81409c0.08195,0 -0.01654,0.16552 -0.21881,0.36782c-0.2023,0.2023 -0.36783,0.50576 -0.36783,0.67434c0,0.2542 -0.09592,0.30661 -0.56195,0.30708c-0.30908,0.00031 -0.78111,0.13419 -1.04898,0.29751c-0.26786,0.16332 -0.48702,0.23863 -0.48702,0.16734zM30.52067,14.0604c0.1453,-0.91163 0.53165,-1.44692 1.34724,-1.86664c0.60536,-0.31153 0.95223,-0.38117 1.89856,-0.38117c1.36748,0 1.6001,0.1429 1.27042,0.78043c-0.12521,0.24213 -0.34619,0.53647 -0.49108,0.6541c-0.2093,0.16992 -0.23806,0.17174 -0.13997,0.00888c0.0679,-0.11275 0.175,-0.43353 0.238,-0.71285c0.10268,-0.4553 0.07738,-0.51719 -0.24455,-0.59799c-0.43518,-0.10922 -0.9302,0.00266 -1.33314,0.30136c-0.25793,0.19119 -0.27312,0.2657 -0.10897,0.53445c0.14709,0.24082 0.15097,0.3866 0.01693,0.63702l-0.17379,0.32474l-0.2792,-0.34479c-0.15356,-0.18963 -0.27919,-0.43847 -0.27919,-0.55297c0,-0.30435 -0.20332,-0.25518 -0.5733,0.13865c-0.45286,0.48205 -0.4075,0.80661 0.1612,1.15335c0.54879,0.3346 0.45014,0.36937 -0.38777,0.1367c-0.49504,-0.13746 -0.60585,-0.1217 -0.79603,0.11322c-0.2008,0.24804 -0.21223,0.21829 -0.1254,-0.3265zM16.65716,11.11135c0,-0.13019 -0.22522,-0.68421 -0.5005,-1.23115c-0.43347,-0.86125 -0.45855,-0.96698 -0.18732,-0.78942c0.17225,0.11276 0.45962,0.41939 0.6386,0.68141c0.18185,0.26621 0.36756,0.40819 0.42094,0.32182c0.05254,-0.08501 0.1982,-0.15457 0.32369,-0.15457c0.18515,0 0.16484,0.10592 -0.10775,0.56195c-0.45164,0.75556 -0.58766,0.89674 -0.58766,0.60996zM30.67711,10.22528c-0.41883,-0.6329 -0.40562,-0.91744 0.02985,-0.64275c0.20217,0.12753 0.2922,0.07267 0.47984,-0.29239c0.12703,-0.24715 0.39956,-0.55541 0.60561,-0.68501c0.34845,-0.21917 0.36073,-0.218 0.17566,0.01679c-0.10944,0.13884 -0.35339,0.69432 -0.54211,1.23442l-0.34314,0.98199z" id="path21 1 1" fill="none" stroke-width="0"></path><path d="M21.60234,39.31943c-1.32644,-0.45921 -2.09795,-1.60005 -2.09795,-3.10226c0,-0.58544 -0.60186,-1.98827 -1.42121,-3.31264c-0.21671,-0.35029 -0.35205,-0.63688 -0.30075,-0.63688c0.46097,0 1.31679,1.07164 2.19949,2.75417l0.4026,0.7674l0.00952,-0.62462c0.01824,-1.19969 0.13596,-1.19646 1.01899,0.02798c0.47794,0.66273 0.9018,1.10981 1.01207,1.0675c0.2061,-0.07908 0.52595,0.17225 0.52595,0.41328c0,0.08325 -0.07992,0.06993 -0.17982,-0.02996c-0.25686,-0.25686 -0.49217,-0.22306 -0.27434,0.03942c0.14386,0.17334 0.13534,0.31266 -0.04072,0.66554l-0.22265,0.44631l0.83345,0.10413c0.90448,0.113 3.66284,0.00396 3.92016,-0.15531c0.10701,-0.06613 0.0832,-0.24414 -0.07309,-0.54634c-0.22929,-0.4434 -0.22157,-0.46426 0.71235,-1.92483c0.51929,-0.81212 0.97639,-1.44536 1.01579,-1.40722c0.03942,0.03812 0.10976,0.41924 0.15635,0.84689l0.08472,0.77754l0.25413,-0.59941c0.13977,-0.32968 0.32168,-0.70057 0.40426,-0.8242c0.08258,-0.12363 0.31265,-0.52824 0.51127,-0.89912c0.38119,-0.7118 1.07923,-1.45948 1.22576,-1.31295c0.0478,0.0478 -0.18238,0.5819 -0.51148,1.18693c-0.68798,1.26485 -1.07297,2.45497 -0.9694,2.99674c0.19051,0.99657 -0.64582,2.40937 -1.76392,2.97979c-0.61171,0.31207 -1.23616,0.39428 -3.88401,0.51131c-1.44185,0.06372 -1.85794,0.02956 -2.54752,-0.20917zM22.0519,37.43761c0.1533,-0.18471 0.14145,-0.22478 -0.06643,-0.22478c-0.13914,0 -0.38901,-0.0728 -0.55527,-0.16178c-0.28066,-0.15021 -0.28485,-0.18105 -0.0586,-0.43105c0.2251,-0.24873 0.22486,-0.27649 -0.00283,-0.36397c-0.14214,-0.05454 -0.21049,-0.18934 -0.16117,-0.31787c0.08326,-0.21696 -0.47751,-1.34939 -0.60504,-1.22186c-0.03506,0.03506 0.01461,0.51386 0.11038,1.06393c0.11479,0.65919 0.30067,1.15048 0.54525,1.44115c0.42221,0.50177 0.53217,0.53171 0.794,0.21623zM28.11213,36.95059c0.26478,-0.40209 0.39671,-0.86036 0.46378,-1.61093l0.09374,-1.04898l-0.38673,0.65218c-0.42184,0.7114 -0.46466,0.83729 -0.23688,0.69651c0.24211,-0.14963 0.17158,0.17006 -0.0844,0.3825c-0.21201,0.17595 -0.21122,0.20729 0.00833,0.33015c0.33145,0.18549 0.01897,0.56111 -0.46675,0.56111c-0.41876,0 -0.46621,0.22079 -0.09404,0.43756c0.14423,0.08401 0.27815,0.1548 0.29758,0.1573c0.01943,0.00227 0.20186,-0.24832 0.40538,-0.55739zM24.29971,36.84494c0.00001,-0.24448 0.32784,-0.68108 0.51141,-0.68108c0.11064,0 0.29371,0.11801 0.40683,0.26225c0.18918,0.24123 0.18327,0.24462 -0.07375,0.04231c-0.25173,-0.19812 -0.30742,-0.18535 -0.56195,0.12899c-0.15538,0.19189 -0.28251,0.30328 -0.28253,0.24755zM25.50187,36.81731c-0.0017,-0.09389 0.12719,-0.32991 0.28671,-0.52449c0.27961,-0.34106 0.29981,-0.34406 0.56195,-0.08343c0.26262,0.2611 0.26229,0.2667 -0.00952,0.16393c-0.20075,-0.07591 -0.36088,-0.00283 -0.55862,0.25414c-0.15246,0.19831 -0.2787,0.28374 -0.28054,0.18984zM23.77507,36.61315c-0.0578,-0.09352 -0.20896,-0.13018 -0.33591,-0.08147c-0.19437,0.07459 -0.19993,0.05137 -0.03517,-0.14716c0.17541,-0.21135 0.2193,-0.21207 0.42437,-0.00702c0.1258,0.1258 0.18893,0.26854 0.14027,0.3172c-0.04865,0.04865 -0.13575,0.01195 -0.19355,-0.08158zM20.32858,33.61791c-0.50415,-0.33209 -1.49415,-1.87498 -1.74911,-2.72595c-0.12583,-0.41999 -0.28244,-0.59828 -0.63267,-0.72024c-0.25599,-0.08915 -0.73518,-0.3378 -1.06486,-0.55257c-0.59117,-0.38511 -0.59502,-0.38556 -0.27977,-0.0324c0.45555,0.51038 0.76484,1.17488 0.86657,1.86183l0.088,0.59424l-0.23472,-0.62855c-0.1291,-0.3457 -0.48939,-0.91553 -0.80065,-1.26628l-0.56593,-0.63773l-0.10789,0.42988c-0.05934,0.23643 -0.20491,0.56838 -0.32348,0.73767c-0.19889,0.28396 -0.21586,0.2443 -0.21914,-0.51228c-0.00227,-0.52285 -0.1378,-1.14595 -0.37394,-1.7192c-0.41485,-1.00706 -0.41859,-1.02067 -0.25243,-0.91798c0.06564,0.04055 -0.06689,-0.30949 -0.29451,-0.77789c-0.22762,-0.4684 -0.45603,-1.05395 -0.50758,-1.30121c-0.05672,-0.27203 0.0888,-0.07519 0.36848,0.49847c0.66006,1.35384 1.73433,2.65225 2.85763,3.45386c0.9285,0.6626 1.02348,0.69553 2.15627,0.74738c1.22487,0.05607 2.50164,-0.19478 3.80456,-0.74748c0.35028,-0.14859 0.63688,-0.23513 0.63688,-0.19232c0,0.12453 -1.58247,0.78971 -2.32133,0.97576l-0.67575,0.17015v1.4906c0,0.81983 0.06981,1.62104 0.15512,1.78046c0.19721,0.36848 0.0384,0.36602 -0.52976,-0.00827zM19.68268,31.44344c-0.0469,-0.4016 -0.13054,-0.52449 -0.35703,-0.52449c-0.16269,0 -0.27116,0.05058 -0.24104,0.11239c0.54062,1.10958 0.69165,1.21364 0.59807,0.4121zM28.36,33.12929c0.14265,-0.48525 0.03534,-2.64941 -0.14445,-2.91395c-0.05199,-0.07651 -0.46545,-0.22494 -0.91876,-0.32982c-0.45331,-0.10489 -1.09393,-0.32144 -1.42361,-0.48121c-0.32968,-0.15977 -0.46455,-0.24947 -0.29971,-0.19932c2.38437,0.7254 4.21577,0.85805 5.24489,0.3799c1.29009,-0.59941 2.87877,-2.43178 3.62817,-4.1847c0.28851,-0.67486 0.34547,-0.74387 0.27637,-0.33492c-0.04786,0.28331 -0.25484,0.88168 -0.45996,1.32972c-0.24199,0.52858 -0.29413,0.7492 -0.14848,0.62832c0.15784,-0.131 0.127,0.0303 -0.1039,0.54346c-0.22722,0.50496 -0.33093,1.03701 -0.33668,1.72723c-0.00912,1.09751 -0.21619,1.16069 -0.54442,0.16612l-0.17681,-0.53574l-0.29154,0.36041c-0.16034,0.19823 -0.48574,0.76501 -0.7231,1.25953c-0.23736,0.49451 -0.43429,0.79797 -0.43761,0.67434c-0.01297,-0.48353 0.34001,-1.44822 0.70853,-1.93628c0.39556,-0.52386 0.3011,-0.50991 -0.49146,0.07256c-0.24726,0.18172 -0.60114,0.37644 -0.78639,0.43271c-0.19966,0.06065 -0.37451,0.26605 -0.42937,0.50442c-0.20489,0.89026 -1.12672,2.5748 -1.61125,2.94437c-0.64409,0.49128 -0.70289,0.4794 -0.53047,-0.10713zM29.73919,31.14373c0.23931,-0.50183 0.23797,-0.52449 -0.03075,-0.52449c-0.20945,0 -0.29646,0.13339 -0.34212,0.52449c-0.0337,0.28847 -0.01982,0.52449 0.03075,0.52449c0.05058,0 0.20456,-0.23601 0.34212,-0.52449zM18.50922,28.53287c-0.57498,-0.3506 -0.73577,-0.5884 -0.53417,-0.79c0.10394,-0.10395 0.20836,-0.04922 0.32619,0.17093c0.09532,0.1781 0.38816,0.45482 0.65076,0.61494c0.2626,0.16013 0.37631,0.29113 0.25268,0.29113c-0.12363,0 -0.43658,-0.12915 -0.69546,-0.287zM24.1707,28.34912c-0.16447,-0.26336 -0.16177,-0.35055 0.01637,-0.52868c0.32693,-0.32694 0.59966,0.06099 0.35901,0.51065l-0.17843,0.33341zM30.044,28.05334c0.30226,-0.24915 0.54957,-0.54924 0.54957,-0.66687c0,-0.25872 0.2401,-0.28169 0.39107,-0.03744c0.12403,0.20068 -0.69846,0.95024 -1.18125,1.0765c-0.21401,0.05596 -0.14006,-0.05843 0.24061,-0.37221zM19.30603,27.88441c-0.62452,-0.83685 -0.76145,-1.18064 -0.52893,-1.32798c0.33632,-0.21312 0.42757,-0.15311 0.42757,0.28122c0,0.22788 0.135,0.66619 0.3,0.97405c0.3694,0.68922 0.28461,0.72026 -0.19864,0.07271zM22.70093,27.9574c-0.28484,-0.13691 -0.62645,-0.50451 -0.85365,-0.91862c-0.41549,-0.75729 -0.94498,-1.36607 -1.74599,-2.00745c-0.28709,-0.22988 -0.37468,-0.34789 -0.19466,-0.26224c0.18003,0.08564 0.46997,0.15571 0.64432,0.15571c0.82321,0 1.92952,1.20179 2.17186,2.35931c0.05596,0.26737 0.21395,0.54891 0.35106,0.62564c0.43715,0.24464 0.12095,0.28505 -0.37295,0.04769zM25.76078,27.73932c0.18544,-0.19869 0.33865,-0.49178 0.34046,-0.6513c0.00566,-0.47542 0.52625,-1.45875 1.01658,-1.91924c0.25204,-0.23669 0.71652,-0.47758 1.03219,-0.53531l0.57394,-0.10495l-0.67612,0.69508c-0.37187,0.3823 -0.87843,1.0923 -1.12568,1.57779c-0.34832,0.68392 -0.56768,0.92961 -0.97405,1.09095l-0.52449,0.20824zM29.18005,27.71004c0.1547,-0.24013 0.31687,-0.7324 0.36037,-1.09392c0.07339,-0.60994 0.09921,-0.64253 0.35822,-0.45218c0.27157,0.19958 0.27098,0.2211 -0.02152,0.79422c-0.16535,0.324 -0.45313,0.72395 -0.6395,0.88879l-0.33885,0.29971zM22.41859,24.94214c-0.32531,-0.23771 -0.92865,-0.5396 -1.34074,-0.67087l-0.74927,-0.23867l0.71455,0.05335c0.48042,0.03585 0.91692,0.19431 1.33221,0.48356c0.33972,0.2366 0.75995,0.51349 0.93385,0.61531c0.31426,0.18398 0.31431,0.18512 0.00855,0.18731c-0.16921,0.00113 -0.57381,-0.19228 -0.89912,-0.43zM25.80391,24.76763c0.89011,-0.78382 2.392,-1.34377 2.392,-0.89182c0,0.08242 -0.19462,0.14985 -0.43249,0.14985c-0.25506,0 -0.80074,0.24592 -1.33012,0.59942c-1.06784,0.71307 -1.34982,0.77693 -0.6294,0.14255zM16.13157,21.80307c-0.42534,-0.64274 -0.66888,-1.37374 -0.68205,-2.04725c-0.0079,-0.40372 -0.02737,-0.42194 -0.18732,-0.17533c-0.42363,0.65317 -0.54541,0.73006 -0.2761,0.17434c0.15976,-0.32968 0.43253,-0.72788 0.60614,-0.88488l0.31565,-0.28547v0.69019c0,0.84257 0.26229,2.13374 0.54656,2.6905c0.3057,0.59875 0.11839,0.5047 -0.32288,-0.1621zM32.1106,21.13992c0.17037,-0.49317 0.27325,-1.22779 0.27632,-1.97317l0.0051,-1.18749l0.38887,0.36329c0.21388,0.19981 0.48912,0.5656 0.61164,0.81286l0.22277,0.44956l-0.76294,-0.89912l-0.00566,0.81435c-0.0051,0.80668 -0.40303,1.90364 -0.8137,2.24447c-0.13334,0.11066 -0.10912,-0.08448 0.07753,-0.62475zM21.17318,20.92182c-0.01121,-0.18236 -0.1586,-0.7009 -0.3275,-1.15233c-0.5366,-1.4342 -1.80314,-2.17527 -2.50986,-1.46854c-0.25572,0.25571 -0.29108,0.25635 -0.69439,0.0124c-0.23372,-0.14137 -0.53394,-0.22123 -0.66715,-0.17745c-0.13321,0.04378 -0.03989,-0.09594 0.20737,-0.31048c0.24726,-0.21454 0.60129,-0.43183 0.78673,-0.48288c0.36139,-0.09946 0.4394,-0.4884 0.19104,-0.95248c-0.13088,-0.24456 -0.05659,-0.28511 0.71181,-0.3885c0.47187,-0.0635 1.06024,-0.0986 1.3075,-0.07801c0.55142,0.04593 1.8016,0.5674 2.03529,0.84897c0.24819,0.29904 0.4373,0.11385 0.4373,-0.42823c0,-0.34105 0.0452,-0.42548 0.16411,-0.30657c0.18937,0.18937 0.26646,1.61243 0.09657,1.78276c-0.06267,0.06283 -0.29869,-0.06145 -0.52449,-0.27618c-0.72316,-0.68775 -1.9415,-1.20635 -2.62017,-1.11532c-1.00347,0.13459 -1.11898,0.60017 -0.24488,0.98709c0.81359,0.36013 1.91366,2.57757 1.73615,3.49962l-0.06501,0.33767zM27.17234,20.08492c0.1561,-1.17276 0.80875,-2.48347 1.43284,-2.87761c0.26101,-0.16484 0.5154,-0.39908 0.56529,-0.52053c0.15254,-0.37131 -0.37849,-0.63624 -1.08809,-0.54288c-0.67829,0.08924 -1.08918,0.3061 -2.07317,1.09414c-0.33728,0.27011 -0.65759,0.44675 -0.71181,0.39253c-0.15753,-0.15753 -0.11376,-1.66994 0.05126,-1.77194c0.08242,-0.05092 0.14986,0.04072 0.14986,0.20368c0,0.72185 0.13721,0.75861 0.90442,0.24232c0.86042,-0.57902 1.68071,-0.77732 2.88987,-0.6986c0.74217,0.04831 0.85654,0.0937 0.76746,0.30455c-0.29724,0.70358 -0.23683,0.83961 0.53103,1.19572c0.80891,0.37515 0.93714,0.54775 0.43505,0.58558c-0.17406,0.01314 -0.42694,0.1232 -0.56195,0.24465c-0.2176,0.19573 -0.28695,0.1871 -0.61064,-0.07609c-0.44868,-0.36482 -0.96186,-0.27038 -1.54504,0.28433c-0.43685,0.41553 -1.01195,1.75453 -1.01195,2.35613c0,0.19809 -0.05584,0.39467 -0.12409,0.43686c-0.06824,0.0422 -0.06841,-0.34159 -0.0003,-0.85282zM23.85577,17.7318c-0.00736,-0.28847 -0.17489,-0.99652 -0.37231,-1.57346c-0.35374,-1.03378 -0.3548,-1.05343 -0.0728,-1.35648c0.29921,-0.32155 0.57629,-1.47154 0.60784,-2.52271c0.01642,-0.54758 0.03302,-0.516 0.14858,0.2827c0.07155,0.49452 0.25245,1.33979 0.402,1.87838c0.26088,0.93951 0.26109,0.99714 0.00566,1.41988c-0.14658,0.24234 -0.31143,0.74575 -0.36633,1.1187c-0.05488,0.37294 -0.15363,0.81294 -0.2194,0.97778c-0.09541,0.2391 -0.1223,0.19363 -0.13296,-0.22478zM12.46125,15.37138c-0.31909,-0.15941 -0.64536,-0.49676 -0.83313,-0.86143c-0.16975,-0.32968 -0.50692,-0.70056 -0.74927,-0.82419l-0.44063,-0.22478l0.57241,-0.04713c0.66651,-0.05488 0.91468,0.11455 1.31385,0.89698c0.19812,0.38835 0.5172,0.688 1.00056,0.93963l0.70967,0.36945l-0.52449,0.00674c-0.28847,0.00396 -0.76051,-0.11116 -1.04898,-0.25527zM17.38946,14.8456c-0.21419,-0.29016 -0.28761,-0.30661 -0.64393,-0.14426c-0.70672,0.322 -0.86984,0.20779 -0.3573,-0.25016l0.48507,-0.43341l-0.5161,-0.48211l-0.5161,-0.48211l-0.11586,0.44711c-0.06372,0.24591 -0.21258,0.52738 -0.33079,0.62548c-0.31022,0.25746 -0.64298,-0.35515 -0.37095,-0.68292c0.15057,-0.18143 0.13142,-0.27725 -0.10199,-0.51028c-0.29377,-0.2933 -0.5719,-0.3618 -1.29889,-0.31991c-0.4775,0.02751 -0.53188,0.31502 -0.18528,0.9796c0.20292,0.38909 0.20214,0.41243 -0.00792,0.23809c-0.12809,-0.1063 -0.37003,-0.38589 -0.53766,-0.62129l-0.30477,-0.42801l0.53174,-0.22217c1.06752,-0.44604 2.87412,-0.16493 3.6608,0.56962c0.43134,0.40276 0.70292,0.91809 0.82654,1.5684c0.10865,0.57156 0.10012,0.57741 -0.21661,0.14833zM34.19006,14.90127c0,-0.09159 0.09598,-0.16653 0.21328,-0.16653c0.34226,0 1.12372,-0.7383 1.44217,-1.36253c0.34972,-0.6855 0.77524,-0.94718 1.31812,-0.8106l0.39815,0.10017l-0.47832,0.20138c-0.36708,0.15455 -0.51588,0.34091 -0.63986,0.80132c-0.11264,0.41828 -0.30811,0.69001 -0.64559,0.89744c-0.59395,0.36506 -1.60795,0.57905 -1.60795,0.33935zM20.77814,14.56521c-0.25285,-0.15661 -0.72822,-0.2788 -1.08644,-0.27924c-0.49851,-0.00057 -0.63688,-0.05596 -0.63688,-0.25483c0,-0.13972 -0.18544,-0.44871 -0.4121,-0.68663l-0.4121,-0.43258l0.76832,0.2906c0.81388,0.30783 1.05883,0.45712 1.84803,1.12628c0.59067,0.50084 0.55514,0.62289 -0.06884,0.23641zM26.84722,14.45088c0,-0.32014 2.21082,-1.81409 2.68459,-1.81409c0.08195,0 -0.01654,0.16552 -0.21881,0.36782c-0.2023,0.2023 -0.36783,0.50576 -0.36783,0.67434c0,0.2542 -0.09592,0.30661 -0.56195,0.30708c-0.30908,0.00031 -0.78111,0.13419 -1.04898,0.29751c-0.26786,0.16332 -0.48702,0.23863 -0.48702,0.16734zM30.52067,14.0604c0.1453,-0.91163 0.53165,-1.44692 1.34724,-1.86664c0.60536,-0.31153 0.95223,-0.38117 1.89856,-0.38117c1.36748,0 1.6001,0.1429 1.27042,0.78043c-0.12521,0.24213 -0.34619,0.53647 -0.49108,0.6541c-0.2093,0.16992 -0.23806,0.17174 -0.13997,0.00888c0.0679,-0.11275 0.175,-0.43353 0.238,-0.71285c0.10268,-0.4553 0.07738,-0.51719 -0.24455,-0.59799c-0.43518,-0.10922 -0.9302,0.00266 -1.33314,0.30136c-0.25793,0.19119 -0.27312,0.2657 -0.10897,0.53445c0.14709,0.24082 0.15097,0.3866 0.01693,0.63702l-0.17379,0.32474l-0.2792,-0.34479c-0.15356,-0.18963 -0.27919,-0.43847 -0.27919,-0.55297c0,-0.30435 -0.20332,-0.25518 -0.5733,0.13865c-0.45286,0.48205 -0.4075,0.80661 0.1612,1.15335c0.54879,0.3346 0.45014,0.36937 -0.38777,0.1367c-0.49504,-0.13746 -0.60585,-0.1217 -0.79603,0.11322c-0.2008,0.24804 -0.21223,0.21829 -0.1254,-0.3265zM16.65716,11.11135c0,-0.13019 -0.22522,-0.68421 -0.5005,-1.23115c-0.43347,-0.86125 -0.45855,-0.96698 -0.18732,-0.78942c0.17225,0.11276 0.45962,0.41939 0.6386,0.68141c0.18185,0.26621 0.36756,0.40819 0.42094,0.32182c0.05254,-0.08501 0.1982,-0.15457 0.32369,-0.15457c0.18515,0 0.16484,0.10592 -0.10775,0.56195c-0.45164,0.75556 -0.58766,0.89674 -0.58766,0.60996zM30.67711,10.22528c-0.41883,-0.6329 -0.40562,-0.91744 0.02985,-0.64275c0.20217,0.12753 0.2922,0.07267 0.47984,-0.29239c0.12703,-0.24715 0.39956,-0.55541 0.60561,-0.68501c0.34845,-0.21917 0.36073,-0.218 0.17566,0.01679c-0.10944,0.13884 -0.35339,0.69432 -0.54211,1.23442l-0.34314,0.98199z" id="path21 1 1" fill="#000000" stroke-width="0"></path><path d="M2,24c0,-12.15026 9.84974,-22 22,-22c12.15026,0 22,9.84974 22,22c0,12.15026 -9.84974,22 -22,22c-12.15026,0 -22,-9.84974 -22,-22z" id="base 1 9 1" fill="none" stroke-width="1"></path><path d="M2,24c0,-12.15026 9.84974,-22 22,-22c12.15026,0 22,9.84974 22,22c0,12.15026 -9.84974,22 -22,22c-12.15026,0 -22,-9.84974 -22,-22z" id="base 1 5 1" fill="none" stroke-width="1"></path><path d="M2,24c0,-12.15026 9.84974,-22 22,-22c12.15026,0 22,9.84974 22,22c0,12.15026 -9.84974,22 -22,22c-12.15026,0 -22,-9.84974 -22,-22z" id="base 1 1 1" fill="none" stroke-width="1"></path><g fill="#000000" stroke-width="1" font-family="Roboto, sans-serif" font-weight="normal" font-size="14" text-anchor="start"></g><rect x="2" y="2" width="44" height="22" fill="none" stroke-width="1"></rect><path d="M2,24v-22h44v22z" fill="none" stroke-width="1"></path><path d="M2,24v-22h44v22z" fill="none" stroke-width="1"></path><path d="M2,24v-22h44v22z" fill="none" stroke-width="1"></path><path d="M2,24v-22h44v22z" fill="none" stroke-width="1"></path><g stroke-width="1" font-family="Roboto, sans-serif" font-weight="normal" font-size="14" text-anchor="start"><g id="layer1 1 1" fill="#0f0d0b"></g><g id="layer2 1 1" fill="#c3702d"></g><g id="layer3 1 1" fill="#f3f3f3"></g></g><rect x="2" y="2" width="44" height="22" fill="none" stroke-width="1"></rect><path d="M2,24v-22h44v22z" fill="none" stroke-width="1"></path><path d="M2,24v-22h44v22z" fill="none" stroke-width="1"></path><path d="M2,24v-22h44v22z" fill="none" stroke-width="1"></path><path d="M2,24v-22h44v22z" fill="none" stroke-width="1"></path><g id="svg8 1 1" fill="#000000" stroke-width="1" font-family="Roboto, sans-serif" font-weight="normal" font-size="14" text-anchor="start"><g id="layer1 1 1"></g></g><rect x="2" y="2" width="44" height="22" fill="none" stroke-width="1"></rect><path d="M2,24v-22h44v22z" fill="none" stroke-width="1"></path><path d="M2,24v-22h44v22z" fill="none" stroke-width="1"></path><path d="M2,24v-22h44v22z" fill="none" stroke-width="1"></path><path d="M2,24v-22h44v22z" fill="none" stroke-width="1"></path></g></svg>